<svg width="35" height="29" viewBox="0 0 35 29" fill="none" xmlns="http://www.w3.org/2000/svg">
<circle cx="7.2644" cy="7.2644" r="7.2644" transform="matrix(-1 0 0 1 14.6714 0.119141)" fill="#DDE2FC"/>
<circle cx="4.59008" cy="4.59008" r="4.59008" transform="matrix(-1 0 0 1 11.9976 2.79297)" fill="#B0BDFF"/>
<circle cx="7.2644" cy="7.2644" r="7.2644" transform="matrix(-1 0 0 1 34.7783 0.119141)" fill="#DDE2FC"/>
<circle cx="4.59008" cy="4.59008" r="4.59008" transform="matrix(-1 0 0 1 32.104 2.79297)" fill="#B0BDFF"/>
<ellipse cx="16.3524" cy="12.9753" rx="16.3524" ry="12.9753" transform="matrix(-1 0 0 1 33.813 2.27148)" fill="#DDE2FC"/>
<rect width="3.30324" height="2.20633" rx="1.10317" transform="matrix(-1 0 0 1 20.2495 12.3027)" fill="#5968F2"/>
<rect width="0.699998" height="0.60276" rx="0.30138" transform="matrix(-1 0 0 1 19.7358 12.6465)" fill="white"/>
<rect width="5.60529" height="4.65035" rx="2.32518" transform="matrix(-1 0 0 1 28.1304 12.6465)" fill="#B0BDFF"/>
<rect width="5.60529" height="4.65035" rx="2.32518" transform="matrix(-1 0 0 1 14.1948 12.6465)" fill="#B0BDFF"/>
<rect width="1.81403" height="2.20633" rx="0.907017" transform="matrix(-1 0 0 1 16.2119 11.4365)" fill="#5968F2"/>
<rect width="1.81403" height="2.20633" rx="0.907017" transform="matrix(-1 0 0 1 22.7114 11.4365)" fill="#5968F2"/>
<path d="M17.1489 15.5335L17.8736 15.902C18.3289 16.1336 18.8675 16.1336 19.3228 15.902V15.902L20.0475 15.5335" stroke="#5968F2" stroke-linecap="round" stroke-linejoin="round"/>
</svg>
