<svg width="24" height="25" viewBox="0 0 24 25" fill="none" xmlns="http://www.w3.org/2000/svg">
<path d="M19.21 0H4.79C2.14456 0 0 2.14456 0 4.79V13.16C0 15.8054 2.14456 17.95 4.79 17.95H19.21C21.8554 17.95 24 15.8054 24 13.16V4.79C24 2.14456 21.8554 0 19.21 0Z" fill="#DDE2FC"/>
<path d="M15.25 20.5C17.0449 20.5 18.5 19.0449 18.5 17.25C18.5 15.4551 17.0449 14 15.25 14C13.4551 14 12 15.4551 12 17.25C12 19.0449 13.4551 20.5 15.25 20.5Z" fill="#DDE2FC"/>
<path d="M11.6 24.2C12.4837 24.2 13.2 23.4837 13.2 22.6C13.2 21.7163 12.4837 21 11.6 21C10.7163 21 10 21.7163 10 22.6C10 23.4837 10.7163 24.2 11.6 24.2Z" fill="#DDE2FC"/>
<path d="M7.41943 5.69922L9.20044 12.8789L11.9872 5.69922L14.6811 12.8789L16.4621 5.69922" stroke="#B0BDFF" stroke-width="2" stroke-linecap="round" stroke-linejoin="round"/>
<path d="M6 9.69922H17.8816" stroke="#B0BDFF" stroke-width="2" stroke-linecap="round" stroke-linejoin="round"/>
</svg>
