<svg width="126" height="200" viewBox="0 0 126 200" fill="none" xmlns="http://www.w3.org/2000/svg">
<g clip-path="url(#clip0_881_5289)">
<path d="M92.2249 163.839C90.8802 162.361 92.814 158.726 91.6357 155.936C91.4763 155.564 91.2892 152.087 90.901 151.984L96.3488 132.383C96.134 132.329 23.1844 135.614 22.9696 135.669L33.5672 158.568C33.1444 158.671 32.3404 160.176 32.2018 160.581C31.8968 161.489 30.9819 164.602 31.4601 166.629C31.578 167.124 31.3977 167.639 30.9888 167.956C29.3046 169.261 25.4093 173.227 28.1748 180.354C28.5421 181.295 27.752 182.278 26.7539 182.092C23.5656 181.515 18.4713 180.993 18.7347 183.652C19.1159 187.398 34.8078 191.879 35.6742 192.126C35.7019 192.133 35.7227 192.14 35.7505 192.147C36.4644 192.298 47.0343 194.531 55.8991 195.349C57.8606 195.528 59.5726 194.092 59.7666 192.154C60.037 189.48 61.1667 187.391 62.6361 186.284C62.6361 186.284 64.4105 185.123 65.3739 185.082C65.3739 185.082 65.7343 189.473 71.9237 193.404C71.9237 193.404 67.7582 196.428 69.6157 198.641C73.6357 203.445 87.9137 191.102 92.0377 188.449C95.0527 186.511 103.883 178.594 97.2845 174.045C94.824 172.347 95.9469 167.935 92.2179 163.853L92.2249 163.839Z" fill="#5968F2"/>
<path d="M25.846 136.328C25.846 136.328 17.0712 139.744 16.9534 149.984C16.8633 158.409 22.8725 161.688 22.8725 161.688C22.8725 161.688 25.0489 167.777 30.3304 167.777C34.2811 167.777 36.4228 165.062 36.5475 162.011C36.6723 158.959 34.2326 153.722 34.2326 153.722" fill="#5968F2"/>
<path d="M52.392 93.8491C52.392 79.4994 40.6646 67.8711 26.1995 67.8711C11.7343 67.8711 0 79.4994 0 93.8491C0 99.2784 1.68425 104.323 4.56065 108.488C2.62688 110.941 1.46246 114.02 1.46246 117.374C1.46246 125.353 7.9846 131.82 16.0316 131.82C23.3577 131.82 29.4016 126.459 30.4274 119.477C42.8826 117.47 52.3989 106.763 52.3989 93.8423L52.392 93.8491Z" fill="#5968F2"/>
<path d="M119.007 78.6544C108.291 65.8303 89.1129 64.0435 76.1795 74.6752C63.2461 85.3001 61.444 104.316 72.1664 117.14C76.2211 121.999 81.4956 125.264 87.1791 126.879C87.2831 130.494 88.5376 134.102 91.0466 137.105C97.0074 144.239 107.667 145.228 114.862 139.318C121.412 133.937 122.805 124.707 118.514 117.711C128.156 106.77 128.655 90.2071 119.007 78.6544Z" fill="#5968F2"/>
<path d="M105.914 110.975C105.935 110.804 105.962 110.639 105.976 110.467C107.425 92.9626 89.0574 77.3208 64.965 75.5133C41.129 73.7334 20.6269 86.1657 18.7832 103.374C15.9346 107.223 14.1741 111.876 13.9661 116.934L13.9107 118.26C13.3354 132.129 24.5568 143.798 38.9735 144.334L80.1926 145.853C94.6092 146.382 106.766 135.572 107.349 121.703L107.404 120.377C107.543 117.078 107.002 113.903 105.921 110.969L105.914 110.975Z" fill="#5968F2"/>
<path d="M54.3151 108.599C54.9375 102.119 50.4314 96.3927 44.2504 95.8091C38.0695 95.2254 32.5543 100.005 31.932 106.486C31.3096 112.966 35.8157 118.692 41.9966 119.276C48.1776 119.859 53.6927 115.079 54.3151 108.599Z" fill="white"/>
<path d="M80.6382 108.962C81.2606 102.482 76.7545 96.756 70.5736 96.1723C64.3926 95.5887 58.8775 100.369 58.2551 106.849C57.6327 113.329 62.1388 119.055 68.3197 119.639C74.5007 120.222 80.0158 115.442 80.6382 108.962Z" fill="white"/>
<path d="M51.4493 105.848C50.2364 105.732 49.3561 104.611 49.474 103.34C49.5225 102.831 49.7304 102.385 50.0285 102.027C49.169 101.374 48.1432 100.942 46.9996 100.838C43.6172 100.522 40.6022 103.134 40.2626 106.68C39.923 110.226 42.3904 113.36 45.7658 113.676C49.1482 113.992 52.1632 111.381 52.5029 107.835C52.5722 107.106 52.5167 106.398 52.3642 105.725C52.0731 105.828 51.7612 105.883 51.4355 105.848H51.4493Z" fill="#3953EA"/>
<path d="M71.5911 106.2C70.3781 106.083 69.4979 104.963 69.6157 103.692C69.6642 103.183 69.8721 102.736 70.1702 102.379C69.3107 101.726 68.2849 101.293 67.1413 101.19C63.7589 100.874 60.7439 103.485 60.4043 107.032C60.0647 110.578 62.5321 113.712 65.9076 114.028C69.2899 114.344 72.305 111.732 72.6446 108.186C72.7139 107.458 72.6584 106.75 72.506 106.076C72.2148 106.179 71.9029 106.234 71.5772 106.2H71.5911Z" fill="#3953EA"/>
<path d="M98.4976 93.334C98.4976 93.334 99.1352 94.6329 99.1837 96.4404" stroke="#3953EA" stroke-miterlimit="10"/>
<path d="M95.5933 173.611C95.5933 173.611 94.2418 174.161 93.0011 175.481" stroke="#3953EA" stroke-miterlimit="10"/>
<path d="M38.0238 168.684C38.0238 168.684 36.7832 167.921 34.9811 167.688" stroke="#3953EA" stroke-miterlimit="10"/>
<path d="M37.5664 169.544C37.5664 169.544 35.695 168.802 32.9573 168.596" stroke="#3953EA" stroke-miterlimit="10"/>
<path d="M65.457 184.759C64.5629 180.986 66.4274 178.566 66.4274 178.566" stroke="#3953EA" stroke-miterlimit="10"/>
<path d="M97.8044 95.3481C97.8044 95.3481 96.9934 90.5579 92.2595 88.1113" stroke="#3953EA" stroke-miterlimit="10"/>
<path d="M25.2014 94.8947C25.2014 94.8947 27.6966 86.1529 37.012 82.5586" stroke="#3953EA" stroke-miterlimit="10"/>
<path d="M68.2711 159.846C77.6281 163.496 85.8275 159.764 89.6812 157.695C95.7528 154.431 98.6292 150.197 98.6292 150.197C98.6292 150.197 104.056 150.568 109.248 146.582C111.57 144.802 115.125 140.631 112.484 135.813C112.013 134.954 109.955 132.294 106.628 132.913C106.33 132.968 106.045 132.762 105.997 132.459C105.844 131.607 105.422 130.604 104.451 129.917C102.94 128.851 100.799 129.765 99.4332 131.504C98.352 132.885 96.9311 133.896 95.3924 134.59C89.6673 137.181 82.5075 139.456 72.7486 139.023" fill="url(#paint0_linear_881_5289)"/>
<path d="M29.0481 182.615C29.0481 182.615 33.8028 182.663 39.5833 185.509" stroke="#3953EA" stroke-miterlimit="10"/>
<path d="M39.6665 145.339C39.6665 145.339 25.9569 145.504 21.2021 136.391" stroke="#3953EA" stroke-miterlimit="10"/>
<path d="M74.0239 141.971C81.4471 142.156 88.593 139.16 94.6855 135.744C96.1548 134.92 98.1371 132.72 99.2114 131.332C100.57 129.587 102.788 128.446 104.223 129.724C105.332 130.707 105.796 131.923 105.851 132.844C105.851 132.844 111.202 131.573 112.769 136.665C113.15 137.909 113.275 139.009 113.212 139.978" stroke="#3953EA" stroke-miterlimit="10"/>
<path d="M63.9045 123.422C60.8825 126.309 53.8752 131.154 44.3519 128.59C34.2048 125.855 30.6215 118.928 29.7551 116.062C29.5402 115.354 29.7481 114.55 30.2749 114.028L33.38 112.337C34.0108 111.712 34.9603 111.774 35.4593 112.481C36.9565 114.612 39.6457 117.313 43.9776 117.649C46.9649 117.883 50.6384 116.894 51.38 115.966" fill="url(#paint1_linear_881_5289)"/>
<path d="M63.9045 123.422C60.8825 126.309 53.8752 131.154 44.3519 128.59C34.2048 125.855 30.6215 118.928 29.7551 116.062C29.5402 115.354 29.7481 114.55 30.2749 114.028L33.38 112.337C34.0108 111.712 34.9603 111.774 35.4593 112.481C36.9565 114.612 39.6457 117.313 43.9776 117.649C46.9649 117.883 50.6384 116.894 51.38 115.966" stroke="#3953EA" stroke-miterlimit="10"/>
<path d="M43.5064 119.656L42.7371 122.213" stroke="#3953EA" stroke-miterlimit="10"/>
<path d="M45.3846 119.959L45.5787 122.626" stroke="#3953EA" stroke-miterlimit="10"/>
<path d="M32.4027 166.635C32.4027 166.635 30.5521 160.065 32.1116 154.203" stroke="#3953EA" stroke-miterlimit="10"/>
<path d="M71.9238 193.404C71.9238 193.404 67.8345 196.366 69.6158 198.641C72.8456 202.758 87.9138 191.102 92.0378 188.449" fill="#5968F2"/>
</g>
<g clip-path="url(#clip1_881_5289)">
<path d="M69.2507 25.7344H35.814C33.7254 25.7344 32.0323 27.4219 32.0323 29.5035V48.9653C32.0323 51.0469 33.7254 52.7344 35.814 52.7344H69.2507C71.3393 52.7344 73.0324 51.0469 73.0324 48.9653V29.5035C73.0324 27.4219 71.3393 25.7344 69.2507 25.7344Z" fill="#DCF861"/>
<path d="M36.2892 30.2266L50.2608 39.5118C51.6354 40.4286 53.4292 40.4286 54.8089 39.5118L68.7805 30.2266" stroke="#F7FFD2" stroke-miterlimit="10"/>
</g>
<g clip-path="url(#clip2_881_5289)">
<path d="M87.5097 0.734375H65.4903C64.115 0.734375 63 1.92186 63 3.3867V17.082C63 18.5469 64.115 19.7344 65.4903 19.7344H87.5097C88.885 19.7344 90 18.5469 90 17.082V3.3867C90 1.92186 88.885 0.734375 87.5097 0.734375Z" fill="#DCF861"/>
<path d="M65.8033 3.89648L75.0041 10.4305C75.9094 11.0757 77.0906 11.0757 77.9993 10.4305L87.2001 3.89648" stroke="#F7FFD2" stroke-miterlimit="10"/>
</g>
<defs>
<linearGradient id="paint0_linear_881_5289" x1="67.4206" y1="152.687" x2="122.17" y2="135.705" gradientUnits="userSpaceOnUse">
<stop offset="0.41" stop-color="#5968F2"/>
<stop offset="1" stop-color="#3953EA"/>
</linearGradient>
<linearGradient id="paint1_linear_881_5289" x1="57.8434" y1="110.337" x2="39.0356" y2="125.358" gradientUnits="userSpaceOnUse">
<stop offset="0.51" stop-color="#5968F2"/>
<stop offset="0.93" stop-color="#3953EA"/>
</linearGradient>
<clipPath id="clip0_881_5289">
<rect width="126" height="132" fill="white" transform="translate(0 67.7344)"/>
</clipPath>
<clipPath id="clip1_881_5289">
<rect width="41" height="27" fill="white" transform="translate(32.0323 25.7344)"/>
</clipPath>
<clipPath id="clip2_881_5289">
<rect width="27" height="19" fill="white" transform="translate(63 0.734375)"/>
</clipPath>
</defs>
</svg>
