<svg width="126" height="211" viewBox="0 0 126 211" fill="none" xmlns="http://www.w3.org/2000/svg">
<ellipse cx="60.4109" cy="198.392" rx="46.8128" ry="12.1455" fill="#DDE2FC"/>
<g clip-path="url(#clip0_7_38)">
<path d="M92.2249 163.105C90.8802 161.627 92.814 157.992 91.6357 155.202C91.4763 154.83 91.2892 151.353 90.901 151.25L96.3488 131.65C96.134 131.595 23.1844 134.88 22.9696 134.935L33.5672 157.834C33.1444 157.937 32.3404 159.442 32.2018 159.847C31.8968 160.755 30.9819 163.868 31.4601 165.895C31.578 166.39 31.3977 166.905 30.9888 167.222C29.3046 168.527 25.4093 172.493 28.1748 179.62C28.5421 180.561 27.752 181.544 26.7539 181.358C23.5656 180.781 18.4713 180.259 18.7347 182.918C19.1159 186.664 34.8078 191.145 35.6742 191.392C35.7019 191.399 35.7227 191.406 35.7505 191.413C36.4644 191.564 47.0343 193.798 55.8991 194.615C57.8606 194.794 59.5726 193.358 59.7666 191.42C60.037 188.746 61.1667 186.657 62.6361 185.551C62.6361 185.551 64.4105 184.389 65.3739 184.348C65.3739 184.348 65.7343 188.739 71.9237 192.67C71.9237 192.67 67.7582 195.694 69.6157 197.907C73.6357 202.711 87.9137 190.368 92.0377 187.715C95.0527 185.777 103.883 177.86 97.2845 173.311C94.824 171.613 95.9469 167.201 92.2179 163.119L92.2249 163.105Z" fill="#5968F2"/>
<path d="M25.846 135.594C25.846 135.594 17.0712 139.01 16.9534 149.25C16.8633 157.676 22.8725 160.954 22.8725 160.954C22.8725 160.954 25.0489 167.043 30.3304 167.043C34.2811 167.043 36.4228 164.328 36.5475 161.277C36.6723 158.225 34.2326 152.989 34.2326 152.989" fill="#5968F2"/>
<path d="M52.392 93.1155C52.392 78.7657 40.6646 67.1375 26.1995 67.1375C11.7343 67.1375 0 78.7657 0 93.1155C0 98.5447 1.68425 103.589 4.56065 107.754C2.62688 110.207 1.46246 113.286 1.46246 116.64C1.46246 124.619 7.9846 131.086 16.0316 131.086C23.3577 131.086 29.4016 125.725 30.4274 118.743C42.8826 116.736 52.3989 106.029 52.3989 93.1086L52.392 93.1155Z" fill="#5968F2"/>
<path d="M119.007 77.9204C108.291 65.0963 89.1128 63.3095 76.1794 73.9412C63.246 84.5661 61.444 103.582 72.1663 116.406C76.221 121.265 81.4956 124.53 87.179 126.145C87.283 129.76 88.5375 133.368 91.0466 136.371C97.0073 143.505 107.667 144.494 114.862 138.584C121.412 133.203 122.805 123.973 118.514 116.977C128.156 106.036 128.655 89.4731 119.007 77.9204Z" fill="#5968F2"/>
<path d="M105.914 110.242C105.935 110.07 105.962 109.905 105.976 109.733C107.425 92.2289 89.0574 76.5871 64.965 74.7797C41.129 72.9997 20.6269 85.432 18.7832 102.641C15.9346 106.489 14.1741 111.142 13.9661 116.2L13.9107 117.527C13.3354 131.395 24.5568 143.065 38.9735 143.601L80.1926 145.12C94.6092 145.649 106.766 134.838 107.349 120.97L107.404 119.643C107.543 116.345 107.002 113.169 105.921 110.235L105.914 110.242Z" fill="#5968F2"/>
<path d="M54.3152 107.864C54.9375 101.384 50.4314 95.6574 44.2505 95.0737C38.0696 94.4901 32.5544 99.2701 31.932 105.75C31.3096 112.23 35.8158 117.957 41.9967 118.54C48.1776 119.124 53.6928 114.344 54.3152 107.864Z" fill="white"/>
<path d="M80.6382 108.228C81.2606 101.748 76.7545 96.0219 70.5736 95.4382C64.3926 94.8546 58.8775 99.6346 58.2551 106.115C57.6327 112.595 62.1388 118.321 68.3197 118.905C74.5007 119.488 80.0158 114.708 80.6382 108.228Z" fill="white"/>
<path d="M51.4494 105.115C50.2365 104.998 49.3562 103.878 49.474 102.606C49.5225 102.098 49.7305 101.651 50.0285 101.294C49.1691 100.641 48.1433 100.208 46.9996 100.105C43.6173 99.7887 40.6023 102.4 40.2626 105.946C39.923 109.493 42.3905 112.626 45.7659 112.943C49.1483 113.259 52.1633 110.647 52.5029 107.101C52.5722 106.373 52.5168 105.665 52.3643 104.991C52.0732 105.094 51.7613 105.149 51.4355 105.115H51.4494Z" fill="#3953EA"/>
<path d="M71.5911 105.465C70.3781 105.349 69.4979 104.228 69.6157 102.957C69.6642 102.448 69.8721 102.002 70.1702 101.644C69.3107 100.991 68.2849 100.558 67.1413 100.455C63.7589 100.139 60.7439 102.751 60.4043 106.297C60.0647 109.843 62.5321 112.977 65.9076 113.293C69.2899 113.609 72.305 110.998 72.6446 107.452C72.7139 106.723 72.6584 106.015 72.506 105.342C72.2148 105.445 71.9029 105.5 71.5772 105.465H71.5911Z" fill="#3953EA"/>
<path d="M98.4975 92.6C98.4975 92.6 99.1352 93.8989 99.1837 95.7064" stroke="#3953EA" stroke-miterlimit="10"/>
<path d="M95.5934 172.878C95.5934 172.878 94.2418 173.427 93.0012 174.747" stroke="#3953EA" stroke-miterlimit="10"/>
<path d="M38.0239 167.95C38.0239 167.95 36.7832 167.187 34.9811 166.954" stroke="#3953EA" stroke-miterlimit="10"/>
<path d="M37.5664 168.809C37.5664 168.809 35.695 168.067 32.9573 167.861" stroke="#3953EA" stroke-miterlimit="10"/>
<path d="M65.4571 184.025C64.563 180.252 66.4274 177.833 66.4274 177.833" stroke="#3953EA" stroke-miterlimit="10"/>
<path d="M97.8044 94.6137C97.8044 94.6137 96.9934 89.8236 92.2595 87.377" stroke="#3953EA" stroke-miterlimit="10"/>
<path d="M25.2014 94.1601C25.2014 94.1601 27.6966 85.4183 37.012 81.824" stroke="#3953EA" stroke-miterlimit="10"/>
<path d="M68.2711 159.112C77.6281 162.761 85.8275 159.03 89.6812 156.961C95.7528 153.697 98.6292 149.463 98.6292 149.463C98.6292 149.463 104.056 149.834 109.248 145.848C111.57 144.068 115.125 139.897 112.484 135.079C112.013 134.22 109.955 131.56 106.628 132.179C106.33 132.234 106.045 132.028 105.997 131.725C105.844 130.873 105.422 129.87 104.451 129.182C102.94 128.117 100.799 129.031 99.4332 130.77C98.352 132.151 96.9311 133.162 95.3924 133.856C89.6673 136.447 82.5075 138.721 72.7486 138.288" fill="url(#paint0_linear_7_38)"/>
<path d="M29.0482 181.881C29.0482 181.881 33.8029 181.929 39.5834 184.774" stroke="#3953EA" stroke-miterlimit="10"/>
<path d="M39.6665 144.604C39.6665 144.604 25.9569 144.769 21.2021 135.656" stroke="#3953EA" stroke-miterlimit="10"/>
<path d="M74.0239 141.237C81.447 141.422 88.593 138.426 94.6854 135.01C96.1548 134.185 98.1371 131.986 99.2114 130.598C100.57 128.852 102.788 127.712 104.223 128.99C105.332 129.973 105.796 131.189 105.851 132.11C105.851 132.11 111.202 130.839 112.769 135.931C113.15 137.175 113.275 138.275 113.212 139.244" stroke="#3953EA" stroke-miterlimit="10"/>
<path d="M63.9045 122.688C60.8826 125.574 53.8753 130.419 44.352 127.856C34.2049 125.121 30.6215 118.193 29.7551 115.327C29.5403 114.62 29.7482 113.815 30.275 113.293L33.3801 111.602C34.0108 110.977 34.9604 111.039 35.4594 111.747C36.9565 113.877 39.6458 116.578 43.9777 116.915C46.965 117.149 50.6385 116.159 51.3801 115.231" fill="url(#paint1_linear_7_38)"/>
<path d="M63.9045 122.688C60.8826 125.574 53.8753 130.419 44.352 127.856C34.2049 125.121 30.6215 118.193 29.7551 115.327C29.5403 114.62 29.7482 113.815 30.275 113.293L33.3801 111.602C34.0108 110.977 34.9604 111.039 35.4594 111.747C36.9565 113.877 39.6458 116.578 43.9777 116.915C46.965 117.149 50.6385 116.159 51.3801 115.231" stroke="#3953EA" stroke-miterlimit="10"/>
<path d="M43.5063 118.922L42.737 121.478" stroke="#3953EA" stroke-miterlimit="10"/>
<path d="M45.3847 119.224L45.5788 121.891" stroke="#3953EA" stroke-miterlimit="10"/>
<path d="M32.4028 165.902C32.4028 165.902 30.5522 159.332 32.1117 153.47" stroke="#3953EA" stroke-miterlimit="10"/>
<path d="M71.9237 192.67C71.9237 192.67 67.8344 195.632 69.6157 197.907C72.8456 202.024 87.9137 190.368 92.0377 187.715" fill="#5968F2"/>
</g>
<g clip-path="url(#clip1_7_38)">
<path d="M69.2507 25H35.814C33.7254 25 32.0323 26.6875 32.0323 28.7691V48.2309C32.0323 50.3125 33.7254 52 35.814 52H69.2507C71.3393 52 73.0324 50.3125 73.0324 48.2309V28.7691C73.0324 26.6875 71.3393 25 69.2507 25Z" fill="#DCF861"/>
<path d="M36.2892 29.4924L50.2608 38.7776C51.6355 39.6944 53.4292 39.6944 54.809 38.7776L68.7806 29.4924" stroke="#F7FFD2" stroke-miterlimit="10"/>
</g>
<g clip-path="url(#clip2_7_38)">
<path d="M87.5097 0H65.4903C64.115 0 63 1.18749 63 2.65233V16.3477C63 17.8125 64.115 19 65.4903 19H87.5097C88.885 19 90 17.8125 90 16.3477V2.65233C90 1.18749 88.885 0 87.5097 0Z" fill="#DCF861"/>
<path d="M65.8033 3.16129L75.0041 9.69534C75.9094 10.3405 77.0906 10.3405 77.9993 9.69534L87.2001 3.16129" stroke="#F7FFD2" stroke-miterlimit="10"/>
</g>
<defs>
<linearGradient id="paint0_linear_7_38" x1="67.4206" y1="151.953" x2="122.17" y2="134.971" gradientUnits="userSpaceOnUse">
<stop offset="0.41" stop-color="#5968F2"/>
<stop offset="1" stop-color="#3953EA"/>
</linearGradient>
<linearGradient id="paint1_linear_7_38" x1="57.8435" y1="109.603" x2="39.0357" y2="124.623" gradientUnits="userSpaceOnUse">
<stop offset="0.51" stop-color="#5968F2"/>
<stop offset="0.93" stop-color="#3953EA"/>
</linearGradient>
<clipPath id="clip0_7_38">
<rect width="126" height="132" fill="white" transform="translate(0 67)"/>
</clipPath>
<clipPath id="clip1_7_38">
<rect width="41" height="27" fill="white" transform="translate(32.0323 25)"/>
</clipPath>
<clipPath id="clip2_7_38">
<rect width="27" height="19" fill="white" transform="translate(63)"/>
</clipPath>
</defs>
</svg>
