<svg width="375" height="173" viewBox="0 0 375 173" fill="none" xmlns="http://www.w3.org/2000/svg">
<ellipse cx="184.229" cy="160.454" rx="46.8128" ry="12.1455" fill="#DDE2FC"/>
<path d="M177.173 124.108C167.816 127.765 159.617 124.026 155.763 121.953C149.692 118.682 146.815 114.441 146.815 114.441C146.815 114.441 141.388 114.812 136.197 110.819C133.875 109.035 130.319 104.856 132.96 100.029C133.431 99.1679 135.49 96.5031 138.817 97.1228C139.115 97.1779 139.399 96.9713 139.447 96.6683C139.6 95.8145 140.023 94.8092 140.993 94.1206C142.504 93.0533 144.646 93.9691 146.011 95.7112C147.092 97.0952 148.513 98.1075 150.052 98.8029C155.777 101.399 162.958 100.345 172.717 99.9115" fill="url(#paint0_linear_932_3822)"/>
<path d="M216.043 127.876C214.698 126.395 216.632 122.753 215.454 119.957C215.294 119.585 215.107 116.101 214.719 115.998L220.167 96.3595C219.952 96.3044 159.929 97.3854 159.714 97.4405L157.385 122.601C156.962 122.704 156.158 124.212 156.02 124.619C155.715 125.528 154.8 128.647 155.278 130.678C155.396 131.174 155.216 131.69 154.807 132.007C153.122 133.315 149.227 137.289 151.993 144.429C152.36 145.372 151.57 146.357 150.572 146.171C147.384 145.593 142.289 145.07 142.553 147.734C142.934 151.487 158.626 155.977 159.492 156.224C159.52 156.231 159.541 156.238 159.568 156.245C160.282 156.397 170.852 158.635 179.717 159.454C181.678 159.633 183.39 158.194 183.585 156.252C183.855 153.573 184.985 151.48 186.454 150.372C186.454 150.372 188.228 149.208 189.192 149.167C189.192 149.167 189.552 153.567 195.742 157.505C195.742 157.505 191.576 160.535 193.434 162.752C197.454 167.565 211.732 155.199 215.856 152.541C218.871 150.599 227.701 142.666 221.102 138.108C218.642 136.407 219.765 131.987 216.036 127.896L216.043 127.876Z" fill="#5968F2"/>
<path d="M176.21 57.7509C176.21 43.3734 164.482 31.7227 150.017 31.7227C135.552 31.7227 123.818 43.3734 123.818 57.7509C123.818 63.1907 125.502 68.2449 128.379 72.4177C126.445 74.8759 125.28 77.9607 125.28 81.321C125.28 89.3154 131.802 95.7949 139.849 95.7949C147.176 95.7949 153.219 90.424 154.245 83.428C166.7 81.4174 176.217 70.6893 176.217 57.744L176.21 57.7509Z" fill="#5968F2"/>
<path d="M242.824 42.5251C232.109 29.6763 212.931 27.886 199.997 38.5383C187.064 49.1837 185.262 68.2367 195.984 81.0856C200.039 85.9538 205.313 89.2246 210.997 90.8427C211.101 94.4646 212.355 98.0797 214.864 101.089C220.825 108.236 231.485 109.228 238.68 103.306C245.229 97.9144 246.623 88.6668 242.332 81.6571C251.973 70.6949 252.472 54.1002 242.824 42.5251Z" fill="#5968F2"/>
<path d="M226.717 72.8575C226.73 72.6991 226.758 72.5407 226.772 72.3755C228.137 55.8496 210.831 41.0796 188.124 39.3788C165.668 37.6986 146.344 49.4389 144.611 65.6825C141.929 69.3113 140.272 73.7044 140.071 78.4832L140.023 79.7364C139.475 92.8262 150.052 103.85 163.637 104.353L202.479 105.785C216.064 106.288 227.521 96.0832 228.068 82.9865L228.117 81.7332C228.248 78.614 227.742 75.6187 226.717 72.8506V72.8575Z" fill="#5968F2"/>
<path d="M222.315 57.2344C222.315 57.2344 222.953 58.5358 223.002 60.3468" stroke="#3953EA" stroke-miterlimit="10"/>
<path d="M219.411 137.666C219.411 137.666 218.06 138.217 216.819 139.539" stroke="#3953EA" stroke-miterlimit="10"/>
<path d="M161.842 132.729C161.842 132.729 160.601 131.965 158.799 131.73" stroke="#3953EA" stroke-miterlimit="10"/>
<path d="M161.384 133.591C161.384 133.591 159.513 132.847 156.775 132.641" stroke="#3953EA" stroke-miterlimit="10"/>
<path d="M189.275 148.835C188.381 145.055 190.245 142.631 190.245 142.631" stroke="#3953EA" stroke-miterlimit="10"/>
<path d="M221.622 59.2507C221.622 59.2507 220.811 54.4513 216.077 52" stroke="#3953EA" stroke-miterlimit="10"/>
<path d="M149.019 58.7975C149.019 58.7975 151.514 50.0388 160.83 46.4375" stroke="#3953EA" stroke-miterlimit="10"/>
<path d="M192.089 123.874C201.446 127.53 209.645 123.791 213.499 121.719C219.571 118.448 222.447 114.206 222.447 114.206C222.447 114.206 227.874 114.578 233.065 110.584C235.387 108.801 238.943 104.621 236.302 99.7942C235.831 98.9335 233.772 96.2687 230.446 96.8884C230.147 96.9435 229.863 96.7369 229.815 96.4339C229.662 95.5801 229.24 94.5748 228.269 93.8862C226.758 92.8189 224.616 93.7347 223.251 95.4768C222.17 96.8609 220.749 97.8731 219.21 98.5685C213.485 101.164 206.325 103.444 196.566 103.01" fill="url(#paint1_linear_932_3822)"/>
<path d="M152.866 146.688C152.866 146.688 157.621 146.736 163.401 149.586" stroke="#3953EA" stroke-miterlimit="10"/>
<path d="M167.089 105.062C167.089 105.062 149.539 103.657 144.847 95.1602" stroke="#3953EA" stroke-miterlimit="10"/>
<path d="M197.842 105.964C205.265 106.15 212.411 103.148 218.503 99.7258C219.973 98.8995 221.955 96.6961 223.029 95.3051C224.388 93.5561 226.606 92.4131 228.04 93.6939C229.149 94.6785 229.614 95.8973 229.669 96.82C229.669 96.82 235.02 95.5461 236.586 100.649C236.968 101.895 237.092 102.997 237.03 103.967" stroke="#3953EA" stroke-miterlimit="10"/>
<path d="M195.742 157.498C195.742 157.498 191.652 160.466 193.434 162.745C196.663 166.869 211.732 155.191 215.856 152.533" fill="#5968F2"/>
<path d="M201.494 65.1934L185.206 70.2062L201.952 75.2191" stroke="#3953EA" stroke-miterlimit="10"/>
<path d="M161.939 64.1602L174.643 69.173L161.578 74.1927" stroke="#3953EA" stroke-miterlimit="10"/>
<path d="M186.045 84.1707C182.552 86.4844 174.782 90.0099 165.869 85.7889C156.373 81.2925 154.107 73.8214 153.774 70.8398C153.691 70.1031 154.037 69.3456 154.654 68.9256L158.016 67.8101C158.75 67.3074 159.672 67.5347 160.033 68.3196C161.128 70.6815 163.276 73.8283 167.484 74.93C170.381 75.6874 174.172 75.3707 175.066 74.5926" fill="url(#paint2_linear_932_3822)"/>
<path d="M186.045 84.1707C182.552 86.4844 174.782 90.0099 165.869 85.7889C156.373 81.2925 154.107 73.8214 153.774 70.8398C153.691 70.1031 154.037 69.3456 154.654 68.9256L158.016 67.8101C158.75 67.3074 159.672 67.5347 160.033 68.3196C161.128 70.6815 163.276 73.8283 167.484 74.93C170.381 75.6874 174.172 75.3707 175.066 74.5926" stroke="#3953EA" stroke-miterlimit="10"/>
<path d="M166.659 76.8379L165.439 79.2204" stroke="#3953EA" stroke-miterlimit="10"/>
<path d="M168.454 77.4707L168.163 80.1286" stroke="#3953EA" stroke-miterlimit="10"/>
<path d="M135.218 25H101.782C99.6931 25 98 26.6875 98 28.7691V48.2309C98 50.3125 99.6931 52 101.782 52H135.218C137.307 52 139 50.3125 139 48.2309V28.7691C139 26.6875 137.307 25 135.218 25Z" fill="#DCF861"/>
<path d="M102.257 29.4922L116.228 38.7774C117.603 39.6942 119.397 39.6942 120.777 38.7774L134.748 29.4922" stroke="#F7FFD2" stroke-miterlimit="10"/>
<path d="M290.64 103.105H257.204C255.115 103.105 253.422 104.793 253.422 106.875V126.336C253.422 128.418 255.115 130.105 257.204 130.105H290.64C292.729 130.105 294.422 128.418 294.422 126.336V106.875C294.422 104.793 292.729 103.105 290.64 103.105Z" fill="#DCF861"/>
<path d="M257.679 107.598L271.65 116.883C273.025 117.8 274.819 117.8 276.199 116.883L290.17 107.598" stroke="#F7FFD2" stroke-miterlimit="10"/>
<path d="M153.477 0H131.458C130.083 0 128.968 1.18749 128.968 2.65233V16.3477C128.968 17.8125 130.083 19 131.458 19H153.477C154.853 19 155.968 17.8125 155.968 16.3477V2.65233C155.968 1.18749 154.853 0 153.477 0Z" fill="#DCF861"/>
<path d="M131.771 3.16211L140.972 9.69616C141.877 10.3413 143.058 10.3413 143.967 9.69616L153.168 3.16211" stroke="#F7FFD2" stroke-miterlimit="10"/>
<defs>
<linearGradient id="paint0_linear_932_3822" x1="178.43" y1="115.633" x2="123.654" y2="98.6778" gradientUnits="userSpaceOnUse">
<stop offset="0.41" stop-color="#5968F2"/>
<stop offset="1" stop-color="#3953EA"/>
</linearGradient>
<linearGradient id="paint1_linear_932_3822" x1="191.242" y1="116.701" x2="246.01" y2="99.746" gradientUnits="userSpaceOnUse">
<stop offset="0.41" stop-color="#5968F2"/>
<stop offset="1" stop-color="#3953EA"/>
</linearGradient>
<linearGradient id="paint2_linear_932_3822" x1="182.449" y1="70.2067" x2="161.195" y2="81.6066" gradientUnits="userSpaceOnUse">
<stop offset="0.51" stop-color="#5968F2"/>
<stop offset="0.93" stop-color="#3953EA"/>
</linearGradient>
</defs>
</svg>
