<svg width="319" height="150" viewBox="0 0 319 150" fill="none" xmlns="http://www.w3.org/2000/svg">
<path d="M10.1028 27.8C16.6027 22.1003 48.9305 13.6746 69.1862 27.8006C107.15 54.2763 67.064 96.9866 51.5664 81.8246C36.0688 66.6626 64.2117 31.1157 99.6448 40.3912C151.614 53.9955 135.931 123.64 208.025 132.337C266.79 139.425 279.8 99.621 275.416 78.0763C271.512 58.8906 236.521 60.1341 245.942 96.3522C252.739 122.482 288.277 142.764 307.114 148.6" stroke="#DCF861"/>
<path d="M159.858 92.5415C157.813 97.5815 158.159 103.349 161.057 107.943C162.953 110.952 166.037 113.663 171.032 114.635C184.352 117.228 190.483 102.491 190.483 102.491L214.806 42.589C217.842 26.987 203.974 23.1166 203.974 23.1166C203.974 23.1166 173.593 17.2037 173.564 17.198C162.294 15.0048 152.737 27.1865 154.04 37.776C155.083 46.2547 162.934 52.8976 171.538 52.1484C178.429 51.5456 182.874 45.0842 184.834 38.8967C185.08 38.1266 185.879 37.6761 186.662 37.879C187.497 38.097 187.992 38.9711 187.731 39.7938C186.633 43.2609 184.932 46.4796 182.856 48.9839C180.694 51.5926 178.144 53.424 175.355 54.4061L159.862 92.5473L159.858 92.5415Z" fill="#DCF861"/>
<path d="M152.251 79.7088L145.155 22.1379C144.418 16.1643 141.664 10.6112 137.333 6.93028C133.8 3.91924 128.756 1.68566 121.752 2.54898C109.789 4.02373 99.1508 15.968 104.938 30.2337C107.411 36.3318 112.893 38.7691 118.134 38.027C118.658 37.9473 127.118 36.4749 129.587 28.9741C129.803 28.3158 130.509 27.9609 131.166 28.1781C131.822 28.3954 132.176 29.1047 131.96 29.7631C128.925 38.9659 118.877 40.4572 118.452 40.5198L118.442 40.521L123.706 83.2275C123.706 83.2275 125.53 100.104 140.058 98.3135C154.586 96.5227 152.256 79.7082 152.256 79.7082L152.251 79.7088Z" fill="#DCF861"/>
</svg>
