<svg width="16" height="19" viewBox="0 0 16 19" fill="none" xmlns="http://www.w3.org/2000/svg">
<ellipse cx="7.92153" cy="15.5427" rx="7.41177" ry="3.17647" fill="#5968F2"/>
<path d="M12.9836 5.24025C12.7739 2.94686 10.9223 1.03643 8.62521 0.757916C8.41122 0.731805 8.19723 0.71875 7.99198 0.71875C7.78673 0.71875 7.57274 0.731805 7.35875 0.757916C5.06167 1.03643 3.21002 2.94686 3.0004 5.24025C2.94363 5.90608 3.00914 6.54579 3.18382 7.13328C3.29737 7.52059 3.48515 7.88179 3.69477 8.22558L3.97426 8.69122L6.62945 13.0778L6.84906 13.4418C7.36723 14.3008 8.61673 14.3008 9.13491 13.4418L9.35451 13.0778L12.0097 8.69122L12.2936 8.22558C12.5032 7.88179 12.6866 7.52059 12.8045 7.13763C12.9792 6.54579 13.0447 5.90608 12.9836 5.24025Z" fill="#DDE2FC"/>
<path d="M10.5895 5.83377C10.6546 4.40393 9.54427 3.19218 8.1094 3.12725C6.67454 3.06232 5.45853 4.1688 5.39337 5.59865C5.32821 7.02849 6.43858 8.24024 7.87345 8.30517C9.30832 8.3701 10.5243 7.26362 10.5895 5.83377Z" fill="#5968F2"/>
</svg>
