<svg width="23" height="25" viewBox="0 0 23 25" fill="none" xmlns="http://www.w3.org/2000/svg">
<path d="M13.1791 1.55059C13.1791 0.811798 12.5125 0.212891 11.6903 0.212891C10.8681 0.212891 10.2015 0.811798 10.2015 1.55059V3.32363C10.2015 4.06242 10.8681 4.66132 11.6903 4.66132C12.5125 4.66132 13.1791 4.06242 13.1791 3.32363V1.55059Z" fill="#B0BDFF"/>
<ellipse cx="11.6908" cy="21.654" rx="2.59863" ry="2.55886" fill="#B0BDFF"/>
<path d="M2.27844 9.4427C2.27844 5.22326 6.49399 1.80273 11.6941 1.80273C16.8943 1.80273 21.1098 5.22326 21.1098 9.4427L21.1094 13.9626L21.1091 15.5098C21.1091 15.666 21.1482 16.7702 21.2229 16.9079L22.3332 19.9059C22.6765 20.539 22.2106 21.304 21.4818 21.304H1.90501C1.17615 21.304 0.710279 20.539 1.05359 19.9059L2.16392 16.9079C2.23862 16.7702 2.2777 15.666 2.2777 15.5098L2.27807 11.1418L2.27844 9.4427Z" fill="#5968F2"/>
<circle cx="19.1475" cy="4.39746" r="2.59473" fill="#FF9270"/>
</svg>
