<svg width="17" height="22" viewBox="0 0 17 22" fill="none" xmlns="http://www.w3.org/2000/svg">
<path d="M16.6723 7.24139C16.3377 3.56842 13.3826 0.508779 9.71664 0.0627262C9.37513 0.0209087 9.03362 0 8.70605 0C8.37848 0 8.03697 0.0209087 7.69546 0.0627262C4.02946 0.508779 1.07436 3.56842 0.739824 7.24139C0.64922 8.30774 0.753763 9.33226 1.03255 10.2732C1.21376 10.8934 1.51345 11.4719 1.84799 12.0225L2.29404 12.7683L6.53154 19.7936L6.88202 20.3766C7.70899 21.7522 9.70311 21.7522 10.5301 20.3766L10.8806 19.7936L15.1181 12.7683L15.5711 12.0225C15.9056 11.4719 16.1983 10.8934 16.3865 10.2801C16.6653 9.33226 16.7699 8.30774 16.6723 7.24139ZM8.70605 11.5695C6.73366 11.5695 5.1446 9.97346 5.1446 8.00804C5.1446 6.04262 6.73366 4.44659 8.70605 4.44659C10.6784 4.44659 12.2675 6.04262 12.2675 8.00804C12.2675 9.97346 10.6784 11.5695 8.70605 11.5695Z" fill="#DDE2FC"/>
<path d="M12.8515 8.19194C12.9555 5.90198 11.1834 3.96131 8.89345 3.85732C6.6035 3.75334 4.66282 5.52542 4.55884 7.81537C4.45485 10.1053 6.22693 12.046 8.51688 12.15C10.8068 12.254 12.7475 10.4819 12.8515 8.19194Z" fill="#B0BDFF"/>
</svg>
