<svg width="375" height="566" viewBox="0 0 375 566" fill="none" xmlns="http://www.w3.org/2000/svg">
<g filter="url(#filter0_d_13_160)">
<path d="M108.885 51.6967C108.885 48.7418 107.365 46.1398 105.062 44.6209C102.851 47.6439 99.2649 49.6113 95.2166 49.6113C94.8838 49.6113 94.6139 49.3429 94.6139 49.0117C94.6139 48.6806 94.8838 48.4121 95.2166 48.4121C98.8128 48.4121 102.004 46.6897 104.005 44.0267L104.002 44.0253C105.288 42.1918 106.043 39.9623 106.043 37.5575C106.043 31.3532 101.024 26.3174 94.8058 26.2473H72.0707V26.2518C67.4657 26.3695 63.7678 30.1192 63.7678 34.7297C63.7678 37.6837 65.2854 40.2836 67.5866 41.8028C67.5902 41.7974 67.594 41.792 67.5979 41.7867C69.8005 38.7774 73.4556 36.8154 77.5836 36.8154C77.9165 36.8154 78.1864 37.0839 78.1864 37.415C78.1864 37.7462 77.9165 38.0146 77.5836 38.0146C73.8883 38.0146 70.6279 39.7492 68.6431 42.3971C68.6459 42.3984 68.6486 42.3997 68.6513 42.401C67.3645 44.2346 66.6097 46.464 66.6097 48.8688C66.6097 55.0731 71.6296 60.1089 77.8477 60.179H100.583V60.1756C105.188 60.058 108.886 56.3083 108.886 51.6978L108.885 51.6967Z" fill="#5968F2"/>
<path fill-rule="evenodd" clip-rule="evenodd" d="M53.5411 59.9645C59.7528 59.9645 61.534 56.0661 62.2823 52.0332C63.5784 46.428 62.083 34.7248 62.083 34.7248C62.083 30.0974 58.3451 26.338 53.7029 26.2521V26.2476H27.1127C22.3953 26.2476 18.5708 30.0431 18.5708 34.7248C18.5708 39.4065 22.3953 43.2021 27.1127 43.2021H30.428C31.2337 45.7199 30.7879 48.8606 30.5445 50.5757C30.4903 50.9579 30.4461 51.2693 30.428 51.4872C29.9896 56.7714 34.2525 59.9645 38.9699 59.9645C41.9805 59.9645 44.6469 58.3978 46.1693 56.0614C47.1784 53.5954 47.3295 50.6674 47.1975 48.2465C47.1267 46.9488 46.9758 45.8164 46.8426 45.0091C46.7761 44.6058 46.7142 44.2844 46.6691 44.0652C46.6466 43.9556 46.6284 43.8716 46.6159 43.8157C46.6135 43.805 46.6113 43.7953 46.6094 43.7866C46.6062 43.7728 46.6037 43.7616 46.6017 43.7532L46.5983 43.7384L46.5975 43.7352L46.5975 43.7348C46.5205 43.4128 46.7192 43.0892 47.0412 43.0122C47.3632 42.9352 47.6868 43.1339 47.7638 43.4559L47.1806 43.5954C47.7638 43.4559 47.7638 43.4561 47.7639 43.4563L47.7644 43.4584L47.7657 43.4638L47.7701 43.4831C47.7728 43.4945 47.7762 43.5094 47.7803 43.5277C47.7822 43.536 47.7842 43.545 47.7864 43.5547C47.8002 43.6169 47.8199 43.7075 47.8438 43.824C47.8917 44.0569 47.9565 44.3937 48.0259 44.8139C48.1644 45.6538 48.3212 46.8306 48.3949 48.1812C48.5382 50.8084 48.3716 54.1693 47.0762 56.9831C48.6378 58.8006 50.9462 59.9645 53.5411 59.9645ZM46.5975 43.7348C46.5975 43.7349 46.5974 43.7348 46.5975 43.7348Z" fill="#5968F2"/>
<path d="M37.644 91.995V107.727H35.988V91.995H37.644ZM24.54 103.227C26.79 100.869 27.726 98.187 27.924 95.055H25.188V93.687H29.508C29.49 97.575 28.662 101.193 25.836 104.199L24.54 103.227ZM29.148 104.343C31.434 101.607 32.19 98.403 32.334 95.055H30.048V93.687H33.9C33.918 97.611 33.36 101.841 30.552 105.207L29.148 104.343ZM53.2006 91.995V107.763H51.5446V91.995H53.2006ZM40.9966 94.767V93.399H48.3766V99.159H42.7606V102.615C45.3166 102.597 47.5486 102.489 50.1766 102.039L50.3206 103.443C47.5306 103.893 45.1546 104.001 42.3646 103.983H41.0326V97.827H46.6846V94.767H40.9966ZM60.4413 93.003C62.8533 93.003 64.6533 94.533 64.6533 96.747C64.6533 98.691 63.2493 100.113 61.2693 100.437V102.921C62.6733 102.849 64.0593 102.741 65.3733 102.579L65.4813 103.839C62.1513 104.397 58.4973 104.433 55.7613 104.415L55.5093 103.011C56.7333 103.011 58.1373 103.011 59.6133 102.975V100.437C57.5793 100.131 56.1753 98.709 56.1933 96.747C56.1753 94.533 57.9573 93.003 60.4413 93.003ZM57.8133 96.747C57.7953 98.133 58.9113 99.069 60.4413 99.051C61.9173 99.069 63.0153 98.133 63.0333 96.747C63.0153 95.343 61.9173 94.425 60.4413 94.407C58.9113 94.425 57.7953 95.343 57.8133 96.747ZM66.3093 107.727V91.995H67.9653V98.403H70.4133V99.807H67.9653V107.727H66.3093ZM88.0245 91.995V96.063H90.2925V97.503H88.0245V101.499H86.3685V91.995H88.0245ZM75.6765 94.947V93.579H79.5285V91.887H81.1845V93.579H85.0365V94.947H75.6765ZM76.5405 98.439C76.5225 96.747 78.0525 95.613 80.3565 95.631C82.6245 95.613 84.1725 96.747 84.1725 98.439C84.1725 100.131 82.6245 101.247 80.3565 101.247C78.0525 101.247 76.5225 100.131 76.5405 98.439ZM77.9445 107.547V102.327H88.0245V107.547H77.9445ZM78.1245 98.439C78.1245 99.411 79.0245 99.987 80.3565 99.987C81.6885 99.987 82.5885 99.411 82.5885 98.439C82.5885 97.485 81.6885 96.891 80.3565 96.891C79.0245 96.891 78.1245 97.485 78.1245 98.439ZM79.6005 106.179H86.3685V103.623H79.6005V106.179ZM95.0851 93.867C95.0851 97.377 94.6531 101.031 92.4571 104.127L91.1611 103.371C92.9971 100.923 93.5371 98.187 93.6631 95.235H91.5211V93.867H95.0851ZM94.6891 104.307C96.7231 101.589 97.1011 98.277 97.1551 95.235H95.5891V93.867H98.6131C98.6131 95.199 98.5771 96.621 98.4151 98.079H100.233V92.391H101.817V106.971H100.233V99.447H98.1991C97.8571 101.409 97.2091 103.353 95.9851 105.063L94.6891 104.307ZM103.221 107.727V91.995H104.841V107.727H103.221ZM39.084 126.815V128.651H32.856V133.871H30.624V128.651H24.468V126.815H39.084ZM25.944 122.027C25.926 119.813 28.302 118.409 31.74 118.391C35.16 118.409 37.572 119.813 37.572 122.027C37.572 124.205 35.16 125.609 31.74 125.591C28.302 125.609 25.926 124.205 25.944 122.027ZM28.248 122.027C28.23 123.179 29.58 123.827 31.74 123.827C33.9 123.827 35.25 123.179 35.268 122.027C35.25 120.857 33.9 120.191 31.74 120.191C29.58 120.191 28.23 120.857 28.248 122.027ZM53.4526 117.851V133.907H51.2206V117.851H53.4526ZM40.8886 130.163V123.611H46.1806V121.019H40.8886V119.219H48.4846V125.375H43.1926V128.327C45.6406 128.309 47.7106 128.183 50.0686 127.787L50.2486 129.587C47.6386 130.055 45.2626 130.163 42.3286 130.163H40.8886ZM69.0093 117.851V133.871H66.7413V117.851H69.0093ZM55.5093 129.047C57.5613 126.761 58.3173 124.493 58.4973 121.343H56.2653V119.507H60.6213C60.6213 123.809 60.0093 127.283 57.2013 130.343L55.5093 129.047ZM60.0813 130.199C62.1333 127.535 62.8353 124.853 62.9613 121.343H61.1973V119.507H65.1213C65.1033 124.007 64.5993 127.985 61.9533 131.351L60.0813 130.199ZM84.5659 117.851V133.907H82.3339V117.851H84.5659ZM72.0019 130.163V123.611H77.2939V121.019H72.0019V119.219H79.5979V125.375H74.3059V128.327C76.7539 128.309 78.8239 128.183 81.1819 127.787L81.3619 129.587C78.7519 130.055 76.3759 130.163 73.4419 130.163H72.0019ZM105.459 124.367V126.131H90.843V124.367H105.459ZM91.491 122.207C94.461 122.027 96.135 121.127 96.639 120.155H92.175V118.391H104.127V120.155H99.609C100.113 121.145 101.805 122.027 104.811 122.207L104.091 123.935C101.139 123.719 99.087 122.783 98.115 121.433C97.161 122.783 95.127 123.719 92.211 123.935L91.491 122.207ZM92.535 133.763V129.551H101.463V128.687H92.535V127.031H103.659V131.099H94.731V132.071H104.091V133.763H92.535ZM119.9 117.851V126.527H117.668V123.359H114.752V121.559H117.668V117.851H119.9ZM106.544 125.159C110.252 124.295 112.034 122.621 112.322 120.551H107.408V118.751H114.752C114.752 123.017 112.25 125.717 107.408 126.923L106.544 125.159ZM109.208 133.691V127.211H111.44V128.759H117.668V127.211H119.9V133.691H109.208ZM111.44 131.927H117.668V130.487H111.44V131.927ZM135.816 117.851V133.871H133.728V117.851H135.816ZM121.776 128.975C125.016 127.049 126.42 124.709 126.726 121.559H122.64V119.759H128.94C128.94 121.289 128.778 122.729 128.4 124.043H130.308V118.247H132.432V133.151H130.308V125.807H127.716C126.798 127.643 125.322 129.227 123.036 130.523L121.776 128.975ZM141.149 119.507L140.933 128.435H138.665L138.449 119.507H141.149ZM138.341 130.919C138.305 130.127 138.989 129.461 139.817 129.479C140.591 129.461 141.275 130.127 141.293 130.919C141.275 131.747 140.591 132.413 139.817 132.395C138.989 132.413 138.305 131.747 138.341 130.919Z" fill="#3A3A3A"/>
<mask id="mask0_13_160" style="mask-type:alpha" maskUnits="userSpaceOnUse" x="0" y="0" width="376" height="558">
<rect x="0.0415039" width="375" height="558" fill="#D9D9D9"/>
</mask>
<g mask="url(#mask0_13_160)">
<ellipse cx="281.501" cy="49.6406" rx="41.0478" ry="46.4612" transform="rotate(4.7471 281.501 49.6406)" fill="#5968F2"/>
<path d="M294.558 9.254C301.732 12.038 312.641 22.2989 315.866 32.8771" stroke="white"/>
<path d="M284.359 97.9454C301.841 163.278 252.634 167.266 282.178 228.666C286.201 235.769 288.545 256.076 277.839 274.539" stroke="#B0BDFF" stroke-width="1.5"/>
<path d="M281.743 96.3591C281.899 96.0638 282.193 95.8661 282.525 95.8322L285.719 95.5063C286.051 95.4724 286.379 95.6067 286.591 95.8644L288.563 98.2524C289.072 98.8684 288.689 99.8029 287.894 99.884L281.279 100.559C280.484 100.64 279.92 99.8023 280.294 99.0962L281.743 96.3591Z" fill="#5968F2"/>
<ellipse cx="221.106" cy="83.3081" rx="35.368" ry="40.0323" transform="rotate(-16.7094 221.106 83.3081)" fill="#DCF861"/>
<path d="M236.023 123.371C274.557 171.283 232.031 190.396 279.952 231.201C286.036 235.727 296.035 249.705 287.36 269.419" stroke="#DCF861" stroke-width="1.5"/>
<path d="M232.277 121.874C232.342 121.546 232.567 121.273 232.875 121.145L235.842 119.919C236.151 119.792 236.503 119.827 236.781 120.013L239.354 121.737C240.017 122.181 239.917 123.186 239.179 123.492L233.034 126.031C232.295 126.336 231.515 125.694 231.671 124.911L232.277 121.874Z" fill="#DCF861"/>
<path d="M229.708 48.9358C241.741 53.5823 249.486 69.7853 251.152 77.9271" stroke="white"/>
<path d="M350.091 286.175C350.091 286.175 350.118 286.175 350.136 286.175C350.154 286.175 350.163 286.175 350.181 286.175C350.199 286.175 350.208 286.175 350.226 286.175C350.244 286.175 350.253 286.175 350.271 286.175L362.99 286.5C363.252 286.5 363.514 286.528 363.758 286.564C364.002 286.6 364.219 286.645 364.417 286.699C364.616 286.753 364.779 286.817 364.896 286.889C365.013 286.961 365.104 287.033 365.131 287.115L366.477 290.818C366.504 290.9 366.477 290.981 366.414 291.044C366.35 291.107 366.224 291.171 366.07 291.216C365.917 291.261 365.736 291.297 365.528 291.324C365.321 291.351 365.095 291.36 364.851 291.36C364.715 291.36 364.589 291.36 364.453 291.351C364.318 291.342 364.182 291.333 364.047 291.315C363.911 291.297 363.776 291.279 363.649 291.252C363.523 291.225 363.388 291.198 363.27 291.162L349.196 287.115C348.871 287.024 348.664 286.916 348.564 286.808C348.465 286.699 348.465 286.591 348.564 286.5C348.664 286.41 348.844 286.32 349.106 286.266C349.368 286.211 349.702 286.175 350.109 286.166L350.091 286.175Z" fill="#F8F9FF"/>
<path d="M299.83 292.2C300.047 292.2 300.264 292.209 300.472 292.236C300.68 292.263 300.878 292.29 301.05 292.327C301.222 292.363 301.393 292.417 301.529 292.471C301.664 292.525 301.773 292.589 301.854 292.661L306.172 296.5C306.298 296.608 306.325 296.717 306.28 296.807C306.235 296.897 306.118 296.988 305.955 297.069C305.792 297.15 305.557 297.204 305.295 297.25C305.034 297.295 304.735 297.313 304.428 297.313C304.347 297.313 304.266 297.313 304.184 297.313C304.103 297.313 304.022 297.313 303.931 297.295C303.841 297.277 303.76 297.277 303.679 297.268C303.597 297.259 303.507 297.25 303.426 297.232L286.651 294.422C286.245 294.359 285.956 294.26 285.766 294.151C285.576 294.043 285.504 293.925 285.531 293.808C285.558 293.691 285.694 293.582 285.919 293.483C286.145 293.383 286.479 293.32 286.904 293.284L299.316 292.227C299.316 292.227 299.397 292.227 299.442 292.218C299.487 292.209 299.523 292.218 299.568 292.218C299.614 292.218 299.65 292.218 299.695 292.218C299.74 292.218 299.776 292.218 299.821 292.218L299.83 292.2Z" fill="#B0BDFF"/>
<path d="M249.037 334.781C249.489 334.781 249.904 334.826 250.266 334.917C250.627 335.007 250.916 335.115 251.124 335.26C251.332 335.404 251.449 335.558 251.458 335.73C251.467 335.901 251.35 336.073 251.097 336.235L238.992 344.248C238.857 344.338 238.703 344.419 238.523 344.483C238.342 344.546 238.161 344.6 237.963 344.645C237.764 344.69 237.556 344.717 237.339 344.745C237.123 344.772 236.906 344.781 236.689 344.781C236.409 344.781 236.138 344.763 235.876 344.727C235.614 344.69 235.37 344.645 235.153 344.573C234.937 344.501 234.738 344.419 234.584 344.32C234.431 344.221 234.313 344.103 234.25 343.977L230.971 337.491C230.908 337.356 230.908 337.229 230.971 337.103C231.034 336.976 231.17 336.859 231.341 336.75C231.513 336.642 231.748 336.552 232.019 336.47C232.29 336.389 232.597 336.335 232.94 336.308L248.396 334.817C248.45 334.817 248.504 334.808 248.559 334.799C248.613 334.79 248.667 334.799 248.721 334.79C248.775 334.781 248.83 334.79 248.875 334.79C248.92 334.79 248.974 334.79 249.028 334.79L249.037 334.781Z" fill="#B0BDFF"/>
<path d="M300.011 366.75C300.589 366.75 301.122 366.822 301.583 366.949C302.043 367.075 302.414 367.256 302.685 367.455C302.956 367.653 303.1 367.888 303.1 368.123C303.1 368.358 302.956 368.593 302.622 368.81L287.591 378.574C287.446 378.665 287.283 378.746 287.112 378.818C286.94 378.891 286.75 378.945 286.552 378.99C286.353 379.035 286.145 379.071 285.937 379.089C285.73 379.107 285.513 379.125 285.296 379.125C284.935 379.125 284.582 379.098 284.239 379.035C283.896 378.972 283.58 378.9 283.291 378.791C283.002 378.683 282.758 378.547 282.568 378.394C282.378 378.24 282.243 378.06 282.18 377.87L279.316 369.054C279.262 368.873 279.28 368.701 279.379 368.539C279.479 368.376 279.641 368.232 279.858 368.096C280.075 367.961 280.355 367.861 280.671 367.78C280.987 367.699 281.349 367.644 281.746 367.626L299.695 366.741C299.695 366.741 299.749 366.741 299.776 366.741C299.803 366.741 299.83 366.741 299.858 366.741C299.885 366.741 299.912 366.741 299.939 366.741C299.966 366.741 299.993 366.741 300.02 366.741L300.011 366.75Z" fill="#F8F9FF"/>
<path d="M286.488 421.175C286.687 421.175 286.895 421.184 287.093 421.202C287.292 421.22 287.5 421.247 287.699 421.293C287.897 421.338 288.087 421.383 288.277 421.437C288.466 421.491 288.647 421.564 288.819 421.645L306.912 429.838C307.563 430.127 307.987 430.488 308.213 430.868C308.439 431.247 308.475 431.644 308.321 432.006C308.168 432.367 307.843 432.71 307.346 432.963C306.849 433.216 306.199 433.388 305.404 433.433L272.243 435.158C272.243 435.158 272.18 435.158 272.153 435.158C272.126 435.158 272.089 435.158 272.062 435.158C272.035 435.158 271.999 435.158 271.972 435.158C271.945 435.158 271.909 435.158 271.882 435.158C271.114 435.158 270.427 435.032 269.849 434.806C269.271 434.58 268.828 434.282 268.539 433.939C268.25 433.596 268.115 433.207 268.187 432.819C268.259 432.43 268.521 432.051 269.027 431.717L283.869 421.816C284.031 421.708 284.212 421.609 284.411 421.527C284.609 421.446 284.817 421.374 285.043 421.32C285.269 421.265 285.495 421.22 285.738 421.193C285.982 421.166 286.217 421.148 286.47 421.148L286.488 421.175Z" fill="#B0BDFF"/>
<path d="M203.383 469.574C203.844 469.574 204.287 469.628 204.693 469.719C205.1 469.809 205.479 469.953 205.795 470.125C206.111 470.297 206.391 470.514 206.608 470.757C206.825 471.001 206.961 471.281 207.033 471.579L210.827 488.535C210.935 489.022 210.854 489.483 210.637 489.917C210.42 490.35 210.068 490.739 209.616 491.064C209.165 491.389 208.614 491.66 208.017 491.85C207.421 492.039 206.771 492.139 206.111 492.139C205.931 492.139 205.75 492.139 205.569 492.112C205.389 492.085 205.208 492.067 205.027 492.039C204.847 492.012 204.675 491.958 204.495 491.913C204.314 491.868 204.151 491.796 203.98 491.723L172.987 478.616C172.255 478.309 171.795 477.875 171.587 477.397C171.379 476.918 171.406 476.394 171.65 475.888C171.894 475.382 172.346 474.904 172.969 474.515C173.592 474.127 174.387 473.829 175.327 473.693L202.426 469.664C202.507 469.655 202.589 469.637 202.67 469.628C202.751 469.619 202.832 469.61 202.914 469.61C202.995 469.61 203.076 469.601 203.158 469.601C203.239 469.601 203.32 469.601 203.392 469.601L203.383 469.574Z" fill="#F8F9FF"/>
<path d="M384.769 287.9C386.232 289.093 386.865 290.285 386.738 291.414C386.612 292.543 385.69 293.636 384.083 294.594C382.475 295.551 380.108 296.391 377.154 297.033C374.2 297.674 370.587 298.126 366.495 298.306C360.714 298.568 355.249 298.875 350.064 299.237C344.879 299.598 339.947 300.005 335.304 300.465C330.661 300.926 326.234 301.45 322.07 302.028C317.906 302.606 313.949 303.247 310.237 303.943C306.136 304.72 302.279 305.578 298.701 306.517C295.124 307.457 291.755 308.496 288.747 309.589C285.739 310.682 282.975 311.883 280.608 313.13C278.241 314.376 276.191 315.722 274.583 317.095C273.092 318.378 271.972 319.724 271.241 321.106C270.509 322.488 270.148 323.933 270.202 325.352C270.256 326.77 270.717 328.224 271.602 329.615C272.487 331.006 273.824 332.37 275.586 333.626C276.606 334.358 277.781 335.098 279.081 335.848C280.382 336.598 281.818 337.384 283.354 338.17C284.89 338.955 286.534 339.777 288.241 340.599C289.948 341.421 291.755 342.28 293.589 343.156C296.199 344.393 298.927 345.694 301.709 347.058C304.492 348.422 307.409 349.895 310.282 351.448C313.154 353.002 316.108 354.682 318.945 356.453C321.781 358.223 324.654 360.174 327.336 362.234C331.69 365.567 335.493 369.117 338.718 372.857C341.943 376.596 344.752 380.797 346.812 385.088C348.871 389.378 350.38 394.184 351.066 399.053C351.753 403.922 351.699 409.405 350.759 414.915C349.883 420.064 348.23 425.321 345.818 430.633C343.406 435.944 340.001 441.698 335.873 447.245C331.745 452.791 326.469 458.699 320.489 464.299C314.509 469.9 307.256 475.744 299.361 481.146C291.918 486.241 283.652 491.254 274.628 496.123C265.36 501.127 255.315 505.969 244.548 510.603C233.518 515.354 221.775 519.88 209.4 524.116C197.025 528.353 183.493 532.472 169.726 536.122C156.637 539.59 143.196 542.698 129.547 545.417C115.717 548.172 101.725 550.511 87.6966 552.417C73.6681 554.323 59.4319 555.805 45.4847 556.789C31.5376 557.774 17.7169 558.289 4.34788 558.289C-6.54607 558.262 -15.7689 556.527 -23.0496 553.447C-30.2309 550.403 -35.434 546.094 -38.5143 540.891C-41.5946 535.688 -42.4889 529.934 -41.3417 523.611C-40.1945 517.287 -37.1322 510.946 -32.0285 504.334C-27.0964 497.948 -20.7281 492.067 -13.5106 486.882C-6.29314 481.697 1.39405 477.415 9.65033 473.784C17.9066 470.153 26.2532 467.407 34.7805 465.482C43.2174 463.576 51.7447 462.538 59.992 462.538C74.3998 462.538 89.3948 461.661 104.426 460.017C119.303 458.391 134.073 456.016 148.2 453.044C162.328 450.072 175.237 446.621 187.215 442.683C199.192 438.744 209.4 434.589 218.325 430.064C222.453 427.968 226.292 425.746 229.815 423.424C233.338 421.103 236.436 418.763 239.245 416.333C242.055 413.903 244.439 411.5 246.499 409.034C248.559 406.568 250.212 404.175 251.512 401.745C252.389 400.128 253.183 398.321 253.771 396.406C254.358 394.491 254.71 392.522 254.728 390.471C254.746 388.421 254.421 386.388 253.626 384.32C252.831 382.251 251.612 380.264 249.796 378.286C248.721 377.111 247.42 375.937 245.957 374.754C244.494 373.57 242.895 372.414 241.16 371.249C239.426 370.084 237.628 368.927 235.75 367.762C233.871 366.597 231.974 365.45 230.05 364.284C227.918 363.002 225.741 361.683 223.573 360.328C221.405 358.973 219.3 357.627 217.232 356.218C215.163 354.809 213.221 353.399 211.36 351.927C209.499 350.455 207.819 348.982 206.274 347.447C202.715 343.906 200.385 340.256 199.183 336.616C197.982 332.976 197.946 329.57 198.849 326.128C199.753 322.687 201.541 319.552 204.224 316.445C206.907 313.337 210.24 310.555 214.431 307.854C218.054 305.524 222.236 303.32 226.915 301.26C231.594 299.201 236.517 297.376 241.964 295.642C247.411 293.907 253.03 292.39 259.109 290.98C265.188 289.571 271.403 288.352 278.016 287.25C283.002 286.428 288.178 285.678 293.58 285.001C298.981 284.323 304.501 283.736 310.318 283.203C316.135 282.67 322.124 282.209 328.429 281.812C334.735 281.414 341.266 281.08 348.131 280.8C348.438 280.791 348.754 280.773 349.061 280.764C349.368 280.755 349.684 280.746 350.001 280.737C350.317 280.728 350.624 280.728 350.94 280.719C351.256 280.71 351.563 280.719 351.879 280.719C355.276 280.719 358.681 280.9 361.951 281.234C365.221 281.568 368.41 282.056 371.319 282.679C374.227 283.302 376.937 284.07 379.205 284.937C381.472 285.805 383.396 286.807 384.724 287.891L384.769 287.9ZM304.428 297.304C304.745 297.304 305.043 297.277 305.296 297.24C305.549 297.204 305.783 297.141 305.955 297.06C306.127 296.978 306.244 296.897 306.28 296.798C306.316 296.698 306.289 296.599 306.172 296.491L301.854 292.652C301.773 292.579 301.664 292.525 301.529 292.462C301.393 292.399 301.231 292.363 301.05 292.317C300.869 292.272 300.671 292.245 300.472 292.227C300.273 292.209 300.047 292.191 299.831 292.191C299.785 292.191 299.749 292.191 299.704 292.191C299.659 292.191 299.623 292.191 299.578 292.191C299.532 292.191 299.496 292.191 299.451 292.191C299.406 292.191 299.37 292.191 299.325 292.2L286.913 293.257C286.489 293.293 286.154 293.365 285.92 293.456C285.685 293.546 285.558 293.663 285.531 293.781C285.504 293.898 285.576 294.016 285.766 294.124C285.956 294.232 286.245 294.332 286.651 294.395L303.426 297.204C303.507 297.222 303.597 297.231 303.679 297.24C303.76 297.249 303.85 297.259 303.932 297.268C304.013 297.277 304.094 297.277 304.184 297.286C304.275 297.295 304.347 297.286 304.428 297.286M206.112 492.112C206.762 492.112 207.413 492.013 208.018 491.823C208.623 491.633 209.165 491.371 209.617 491.037C210.068 490.703 210.421 490.315 210.637 489.89C210.854 489.465 210.927 488.996 210.827 488.508L207.033 471.553C206.97 471.255 206.825 470.975 206.609 470.731C206.392 470.487 206.121 470.27 205.796 470.098C205.47 469.927 205.1 469.782 204.694 469.692C204.287 469.602 203.845 469.547 203.384 469.547C203.303 469.547 203.23 469.547 203.149 469.547C203.068 469.547 202.986 469.547 202.905 469.556C202.824 469.565 202.742 469.565 202.661 469.574C202.58 469.583 202.499 469.593 202.417 469.611L175.318 473.639C174.378 473.775 173.584 474.073 172.96 474.461C172.337 474.85 171.885 475.329 171.641 475.834C171.398 476.34 171.361 476.864 171.578 477.343C171.795 477.822 172.247 478.255 172.978 478.562L203.971 491.67C204.143 491.742 204.314 491.805 204.486 491.859C204.657 491.913 204.838 491.959 205.019 491.986C205.199 492.013 205.38 492.049 205.561 492.058C205.741 492.067 205.922 492.085 206.103 492.085M60.5972 496.322C60.9495 495.915 61.1753 495.518 61.2837 495.129C61.3921 494.741 61.374 494.388 61.2566 494.063C61.1392 493.738 60.8953 493.458 60.561 493.232C60.2268 493.006 59.7842 492.844 59.2422 492.753L33.9585 488.463C33.8772 488.454 33.8049 488.436 33.7236 488.427C33.6423 488.418 33.5701 488.409 33.4888 488.4C33.4075 488.39 33.3262 488.39 33.2539 488.381C33.1816 488.372 33.0913 488.381 33.01 488.381C32.197 488.381 31.3479 488.535 30.544 488.806C29.74 489.077 28.9812 489.447 28.3399 489.89C27.6985 490.333 27.1746 490.829 26.8584 491.353C26.5423 491.877 26.4248 492.41 26.5874 492.916L34.5547 517.007C34.636 517.269 34.7805 517.495 34.9612 517.685C35.1418 517.875 35.3676 518.037 35.6296 518.164C35.8916 518.29 36.1897 518.38 36.5149 518.444C36.84 518.507 37.1833 518.534 37.5537 518.534C38.0595 518.534 38.6015 518.471 39.1435 518.362C39.6855 518.254 40.2365 518.082 40.7785 517.857C41.3205 517.631 41.8263 517.36 42.2961 517.035C42.7658 516.709 43.1994 516.339 43.5607 515.923L60.6062 496.331M251.106 336.191C251.359 336.02 251.467 335.848 251.458 335.685C251.449 335.523 251.332 335.36 251.124 335.216C250.916 335.071 250.618 334.954 250.266 334.872C249.913 334.791 249.489 334.737 249.037 334.737C248.983 334.737 248.938 334.737 248.884 334.737C248.829 334.737 248.775 334.737 248.73 334.737C248.685 334.737 248.622 334.737 248.568 334.746C248.513 334.755 248.459 334.746 248.405 334.764L232.958 336.255C232.615 336.291 232.308 336.345 232.037 336.417C231.766 336.489 231.54 336.589 231.359 336.697C231.179 336.806 231.052 336.923 230.989 337.049C230.926 337.176 230.917 337.311 230.989 337.438L234.268 343.924C234.331 344.05 234.449 344.168 234.602 344.267C234.756 344.366 234.955 344.448 235.171 344.52C235.388 344.592 235.641 344.637 235.894 344.673C236.147 344.71 236.427 344.728 236.707 344.728C236.924 344.728 237.141 344.719 237.357 344.691C237.574 344.664 237.782 344.637 237.981 344.592C238.179 344.547 238.369 344.493 238.541 344.43C238.712 344.366 238.875 344.285 239.01 344.195L251.115 336.182M255.388 313.094C255.875 313.076 256.282 313.003 256.598 312.904C256.914 312.805 257.131 312.678 257.248 312.543C257.366 312.407 257.366 312.254 257.248 312.118C257.131 311.983 256.887 311.847 256.508 311.739L245.776 308.776C245.677 308.749 245.578 308.722 245.469 308.703C245.361 308.685 245.252 308.667 245.135 308.649C245.018 308.631 244.909 308.622 244.792 308.622C244.674 308.622 244.557 308.613 244.439 308.613C244.277 308.613 244.123 308.613 243.961 308.631C243.798 308.649 243.654 308.658 243.5 308.685C243.346 308.713 243.211 308.74 243.075 308.776C242.94 308.812 242.822 308.848 242.705 308.893L233.229 312.777C232.913 312.904 232.741 313.048 232.687 313.193C232.633 313.337 232.687 313.473 232.859 313.599C233.031 313.726 233.274 313.834 233.6 313.916C233.925 313.997 234.331 314.042 234.792 314.042C234.819 314.042 234.846 314.042 234.864 314.042C234.882 314.042 234.918 314.042 234.946 314.042C234.973 314.042 235 314.042 235.027 314.042C235.054 314.042 235.081 314.042 235.108 314.042L255.397 313.112M283.905 421.807L269.064 431.708C268.558 432.042 268.296 432.43 268.224 432.81C268.151 433.189 268.287 433.577 268.576 433.93C268.865 434.282 269.317 434.58 269.886 434.797C270.455 435.014 271.15 435.149 271.918 435.149C271.945 435.149 271.981 435.149 272.008 435.149C272.036 435.149 272.072 435.149 272.099 435.149C272.126 435.149 272.162 435.149 272.189 435.149C272.216 435.149 272.252 435.149 272.28 435.149L305.44 433.424C306.235 433.379 306.885 433.207 307.382 432.954C307.879 432.701 308.204 432.367 308.358 431.997C308.511 431.626 308.475 431.238 308.249 430.858C308.024 430.479 307.59 430.127 306.949 429.829L288.855 421.636C288.684 421.554 288.503 421.491 288.313 421.428C288.124 421.365 287.934 421.319 287.735 421.283C287.536 421.247 287.338 421.211 287.13 421.193C286.922 421.175 286.723 421.166 286.525 421.166C286.281 421.166 286.037 421.184 285.793 421.211C285.549 421.238 285.323 421.283 285.097 421.338C284.872 421.392 284.664 421.464 284.465 421.545C284.266 421.627 284.086 421.726 283.923 421.834M281.764 367.627C281.376 367.645 281.015 367.699 280.689 367.78C280.364 367.861 280.093 367.97 279.876 368.096C279.66 368.223 279.497 368.376 279.398 368.539C279.298 368.702 279.28 368.873 279.334 369.054L282.198 377.87C282.261 378.069 282.397 378.241 282.586 378.394C282.776 378.548 283.029 378.683 283.309 378.792C283.589 378.9 283.914 378.981 284.257 379.035C284.601 379.09 284.953 379.126 285.314 379.126C285.531 379.126 285.748 379.117 285.956 379.09C286.163 379.063 286.371 379.035 286.57 378.99C286.769 378.945 286.958 378.891 287.13 378.819C287.302 378.746 287.464 378.665 287.609 378.575L302.64 368.81C302.974 368.593 303.119 368.358 303.119 368.123C303.119 367.889 302.965 367.654 302.703 367.455C302.441 367.256 302.062 367.076 301.601 366.949C301.14 366.823 300.607 366.75 300.029 366.75C300.002 366.75 299.975 366.75 299.948 366.75C299.921 366.75 299.894 366.75 299.867 366.75C299.84 366.75 299.812 366.75 299.785 366.75C299.758 366.75 299.731 366.75 299.704 366.75L281.764 367.636M366.504 290.818L365.158 287.114C365.131 287.033 365.05 286.961 364.923 286.888C364.797 286.816 364.634 286.753 364.445 286.699C364.255 286.645 364.029 286.599 363.785 286.563C363.541 286.527 363.288 286.509 363.017 286.5L350.299 286.175C350.299 286.175 350.272 286.175 350.253 286.175C350.235 286.175 350.226 286.175 350.208 286.175C350.19 286.175 350.181 286.175 350.163 286.175C350.145 286.175 350.136 286.175 350.118 286.175C349.72 286.175 349.377 286.211 349.115 286.274C348.853 286.337 348.673 286.419 348.573 286.509C348.474 286.599 348.474 286.708 348.573 286.816C348.673 286.925 348.88 287.033 349.206 287.123L363.27 291.17C363.397 291.206 363.523 291.233 363.659 291.261C363.794 291.288 363.921 291.306 364.056 291.324C364.192 291.342 364.327 291.351 364.463 291.36C364.598 291.369 364.734 291.369 364.86 291.369C365.095 291.369 365.33 291.36 365.538 291.333C365.745 291.306 365.926 291.27 366.08 291.224C366.233 291.179 366.351 291.116 366.423 291.053C366.495 290.99 366.522 290.908 366.486 290.827" fill="#DDE2FC"/>
<path d="M244.43 308.667C244.548 308.667 244.665 308.667 244.783 308.676C244.9 308.685 245.017 308.694 245.126 308.703C245.234 308.712 245.352 308.73 245.46 308.757C245.568 308.784 245.668 308.802 245.767 308.829L256.499 311.792C256.878 311.9 257.122 312.027 257.239 312.171C257.357 312.316 257.357 312.46 257.239 312.596C257.122 312.731 256.905 312.867 256.589 312.957C256.273 313.048 255.866 313.129 255.378 313.147L235.09 314.077C235.09 314.077 235.036 314.077 235.009 314.077C234.982 314.077 234.955 314.077 234.927 314.077C234.9 314.077 234.873 314.077 234.846 314.077C234.819 314.077 234.792 314.077 234.774 314.077C234.322 314.077 233.916 314.032 233.581 313.951C233.247 313.87 232.994 313.761 232.841 313.635C232.687 313.508 232.615 313.373 232.678 313.228C232.741 313.084 232.904 312.948 233.22 312.813L242.696 308.929C242.804 308.883 242.931 308.838 243.066 308.811C243.202 308.784 243.337 308.748 243.491 308.721C243.644 308.694 243.789 308.676 243.951 308.667C244.114 308.658 244.268 308.648 244.43 308.648V308.667Z" fill="#F8F9FF"/>
<path d="M33.0099 488.436C33.0912 488.436 33.1725 488.436 33.2538 488.436C33.3351 488.436 33.4164 488.436 33.4977 488.454C33.579 488.472 33.6603 488.472 33.7325 488.481C33.8048 488.49 33.8861 488.499 33.9674 488.517L59.2511 492.808C59.7931 492.899 60.2267 493.07 60.57 493.287C60.9132 493.504 61.139 493.793 61.2655 494.118C61.392 494.443 61.401 494.805 61.2926 495.184C61.1842 495.563 60.9584 495.97 60.6151 496.376L43.5696 515.969C43.2083 516.385 42.7837 516.755 42.305 517.08C41.8262 517.405 41.3204 517.676 40.7874 517.902C40.2545 518.128 39.7034 518.291 39.1524 518.408C38.6014 518.526 38.0684 518.58 37.5626 518.58C37.2013 518.58 36.849 518.553 36.5238 518.489C36.1986 518.426 35.9005 518.336 35.6385 518.209C35.3766 518.083 35.1507 517.929 34.9701 517.731C34.7894 517.532 34.6449 517.315 34.5636 517.053L26.5964 492.962C26.4338 492.456 26.5512 491.923 26.8674 491.399C27.1835 490.875 27.7074 490.378 28.3488 489.936C28.9901 489.493 29.7489 489.123 30.5529 488.852C31.3568 488.581 32.2059 488.427 33.0189 488.427L33.0099 488.436Z" fill="#B0BDFF"/>
<path d="M340.268 244.486C331.026 251.58 320.685 250.063 315.723 248.998C307.904 247.315 303.33 243.519 303.33 243.519C303.33 243.519 297.405 245.685 290.333 242.913C287.171 241.676 281.86 238.168 283.244 231.938C283.491 230.827 284.923 227.194 288.829 226.811C289.179 226.776 289.429 226.454 289.385 226.101C289.279 225.1 289.426 223.844 290.284 222.764C291.623 221.087 294.304 221.416 296.388 222.915C298.039 224.108 299.948 224.777 301.887 225.055C309.102 226.098 316.761 222.606 327.491 218.972" fill="url(#paint0_linear_13_160)"/>
<path d="M384.782 236.134C382.806 234.919 383.784 230.237 381.569 227.503C381.271 227.14 379.938 223.32 379.472 223.33L379.2 199.695C378.943 199.703 312.431 220.287 312.21 220.418L317.739 249.197C317.301 249.448 316.893 251.387 316.869 251.885C316.823 252.996 316.811 256.766 318 258.874C318.291 259.388 318.257 260.022 317.904 260.507C316.45 262.508 313.394 268.191 318.78 275.252C319.494 276.184 318.931 277.536 317.759 277.651C314.021 278.037 308.178 279.098 309.331 281.982C310.968 286.039 329.897 285.974 330.942 285.97C330.975 285.969 331 285.97 331.033 285.968C331.878 285.907 344.374 284.987 354.513 283.037C356.756 282.604 358.198 280.448 357.788 278.222C357.224 275.151 357.807 272.455 359.085 270.745C359.085 270.745 360.686 268.876 361.746 268.519C361.746 268.519 363.568 273.304 371.734 275.693C371.734 275.693 368.072 280.413 370.857 282.283C376.889 286.346 388.801 267.961 392.537 263.669C395.268 260.532 402.543 248.845 393.722 245.898C390.432 244.798 390.255 239.511 384.781 236.159L384.782 236.134Z" fill="#5968F2"/>
<path d="M317.771 170.881C313.129 154.865 296.304 145.674 280.191 150.344C264.078 155.014 254.768 171.781 259.41 187.796C261.167 193.856 264.675 198.942 269.226 202.661C267.866 206.024 267.564 209.836 268.649 213.579C271.23 222.484 280.588 227.596 289.551 224.998C297.712 222.633 302.71 214.699 301.594 206.574C314.819 200.313 321.956 185.291 317.776 170.871L317.771 170.881Z" fill="#5968F2"/>
<path d="M387.058 132.413C370.974 121.56 349.033 125.758 338.065 141.799C327.096 157.833 331.24 179.638 347.332 190.489C353.42 194.603 360.352 196.543 367.205 196.511C368.49 200.512 371.055 204.133 374.821 206.675C383.769 212.712 395.963 210.375 402.065 201.456C407.621 193.336 406.187 182.585 399.145 176.162C406.345 160.838 401.543 142.191 387.058 132.413Z" fill="#5968F2"/>
<path d="M378.909 171.401C378.873 171.22 378.853 171.035 378.815 170.846C375 151.997 350.953 141.132 325.111 146.569C299.554 151.948 281.819 171.264 285.133 189.918C283.317 194.826 282.89 200.254 284.209 205.642L284.56 207.054C288.176 221.812 303.517 230.677 318.812 226.851L362.541 215.906C377.836 212.08 387.303 197.013 383.685 182.248L383.334 180.836C382.474 177.319 380.943 174.146 378.906 171.394L378.909 171.401Z" fill="#5968F2"/>
<path d="M368.962 155.419C368.962 155.419 370.093 156.663 370.731 158.665" stroke="#3953EA" stroke-miterlimit="10"/>
<path d="M325.973 259.039C325.973 259.039 324.345 258.588 322.262 258.909" stroke="#3953EA" stroke-miterlimit="10"/>
<path d="M325.742 260.147C325.742 260.147 323.417 259.923 320.301 260.577" stroke="#3953EA" stroke-miterlimit="10"/>
<path d="M361.732 268.123C359.516 264.2 360.81 260.899 360.81 260.899" stroke="#3953EA" stroke-miterlimit="10"/>
<path d="M368.841 157.889C368.841 157.889 366.388 152.805 360.324 151.603" stroke="#3953EA" stroke-miterlimit="10"/>
<path d="M287.82 180.825C287.82 180.825 287.772 170.263 296.986 163.244" stroke="#3953EA" stroke-miterlimit="10"/>
<path d="M356.807 239.409C368.411 240.461 376.337 233.649 379.961 230.096C385.668 224.492 387.503 218.839 387.503 218.839C387.503 218.839 393.668 217.501 398.161 211.376C400.172 208.64 402.783 202.836 398.283 198.312C397.48 197.505 394.327 195.202 390.821 196.966C390.507 197.124 390.124 196.985 389.972 196.663C389.526 195.761 388.731 194.778 387.427 194.324C385.4 193.623 383.31 195.335 382.351 197.716C381.594 199.607 380.338 201.193 378.848 202.465C373.309 207.205 366.07 212.056 355.059 214.723" fill="url(#paint1_linear_13_160)"/>
<path d="M320.482 277.486C320.482 277.486 325.794 276.004 333.154 277.313" stroke="#3953EA" stroke-miterlimit="10"/>
<path d="M322.885 226.526C322.885 226.526 302.883 230.628 294.913 222.678" stroke="#3953EA" stroke-miterlimit="10"/>
<path d="M357.433 217.602C365.762 215.413 372.753 209.761 378.435 203.982C379.805 202.587 381.301 199.493 382.049 197.597C382.997 195.21 385.099 193.221 387.111 194.184C388.664 194.923 389.575 196.13 389.934 197.14C389.934 197.14 395.483 193.994 398.876 199.172C399.703 200.437 400.197 201.624 400.441 202.726" stroke="#3953EA" stroke-miterlimit="10"/>
<path d="M371.733 275.685C371.733 275.685 368.136 280.311 370.856 282.274C375.785 285.826 388.799 267.952 392.535 263.66" fill="#5968F2"/>
<path d="M348.339 171.007L331.814 181.85L352.085 182.028" stroke="#3551C9" stroke-miterlimit="10"/>
<path d="M303.944 182.628L319.714 184.11L306.781 193.919" stroke="#3551C9" stroke-miterlimit="10"/>
<path d="M337.256 197.135C334.112 200.84 326.596 207.275 315.304 205.451C303.275 203.509 298.338 195.918 297.005 192.704C296.674 191.911 296.816 190.955 297.367 190.288L300.752 187.96C301.408 187.163 302.508 187.118 303.163 187.876C305.145 190.154 308.555 192.965 313.597 192.834C317.069 192.742 321.19 191.166 321.934 190.01" fill="url(#paint2_linear_13_160)"/>
<path d="M337.256 197.135C334.112 200.84 326.596 207.275 315.304 205.451C303.275 203.509 298.338 195.918 297.005 192.704C296.674 191.911 296.816 190.955 297.367 190.288L300.752 187.96C301.408 187.163 302.508 187.118 303.163 187.876C305.145 190.154 308.555 192.965 313.597 192.834C317.069 192.742 321.19 191.166 321.934 190.01" stroke="#3953EA" stroke-miterlimit="10"/>
<path d="M313.294 195.226L312.705 198.273" stroke="#3953EA" stroke-miterlimit="10"/>
<path d="M315.498 195.351L316.032 198.406" stroke="#3953EA" stroke-miterlimit="10"/>
<g clip-path="url(#clip0_13_160)">
<path d="M-49.3731 507.026C-47.4241 505.922 -45.7112 502.912 -44.9979 501.874C-40.3613 495.169 -33.3125 489.915 -29.0396 489.337C-27.4773 489.124 -26.5376 488.475 -26.5416 486.673C-26.5621 483.29 -24.4017 470.487 -21.2211 466.451C-20.7955 465.907 -18.9034 460.309 -18.2213 460.313L23.8785 474.452C24.2499 474.457 24.6184 474.56 24.9378 474.749L71.1571 497.011C71.7877 497.375 72.3997 500.198 72.43 500.932C72.509 502.555 72.5412 508.067 70.8548 511.159C70.443 511.919 70.4936 512.847 71.0069 513.541C73.123 516.448 77.5814 524.689 69.8405 535.115C68.8209 536.492 69.6389 538.448 71.3322 538.609C76.7343 539.098 85.193 540.556 83.5365 544.782C81.2067 550.745 53.8548 550.983 52.3477 550.999C52.2984 550.997 52.2606 550.999 52.2113 550.998C50.9916 550.919 32.9261 549.795 18.2594 547.134C15.0199 546.551 12.9163 543.423 13.4993 540.147C14.2872 535.652 14.3874 529.889 10.1965 528.314C5.51189 526.551 2.3933 533.069 0.810515 537.741C-0.0525283 540.288 9.35131 544.4 6.21317 547.31C0.572723 552.545 -22.1352 540.602 -36.7599 531.412C-36.7599 531.412 -55.5594 519.526 -57.117 516C-58.6746 512.474 -53.4811 509.364 -49.3796 507.05L-49.3731 507.026Z" fill="#5968F2"/>
<path d="M60.8563 375.94C67.6402 351.738 92.626 337.567 116.668 344.306C140.711 351.046 154.682 376.124 147.895 400.338C145.327 409.499 140.143 417.226 133.395 422.914C135.447 427.954 135.925 433.692 134.339 439.351C130.565 452.814 116.671 460.689 103.303 456.942C91.1317 453.53 83.6264 441.671 85.2248 429.411C65.4822 420.225 54.737 397.726 60.848 375.925L60.8563 375.94Z" fill="#5968F2"/>
<path d="M-25.1422 310.747C0.475976 296.978 32.2505 306.66 45.8573 332.375C59.4493 358.098 49.7087 390.101 24.0987 403.884C14.4037 409.097 3.8139 410.944 -6.3217 409.841C-8.87883 415.641 -13.2906 420.658 -19.2743 423.883C-33.519 431.548 -51.1953 426.155 -58.7609 411.852C-65.642 398.829 -61.746 382.936 -50.2535 374.413C-58.3856 350.345 -48.191 323.147 -25.1307 310.75L-25.1422 310.747Z" fill="#5968F2"/>
<path d="M-27.1554 382.438C-27.1086 382.139 -27.0767 381.848 -27.0184 381.551C-21.1459 351.341 16.766 333.501 57.6456 341.67C98.0862 349.766 126.266 380.291 121.19 410.187C124.102 418.008 124.826 426.678 122.779 435.31L122.244 437.574C116.64 461.243 92.4784 475.708 68.2745 469.899L-0.921141 453.267C-25.1218 447.447 -40.2053 423.545 -34.613 399.872L-34.0777 397.608C-32.7478 391.977 -30.3479 386.872 -27.1636 382.424L-27.1554 382.438Z" fill="#5968F2"/>
<path d="M94.8111 361.894C111.038 374.672 119.875 392.371 116.598 409.6C117.855 413.18 118.613 416.944 118.811 420.802C119.008 424.66 118.64 428.721 117.612 432.698L117.083 434.764" stroke="#3953EA" stroke-miterlimit="10"/>
<path d="M70.2751 405.432C72.3061 394.208 82.5005 386.644 93.0449 388.538C103.589 390.431 110.491 401.065 108.46 412.289C106.429 423.513 96.2345 431.077 85.6901 429.184C75.1456 427.29 68.2441 416.656 70.2751 405.432Z" fill="white"/>
<path d="M30.3938 394.909C32.4247 383.685 42.6191 376.121 53.1636 378.015C63.708 379.908 70.6095 390.542 68.5785 401.766C66.5476 412.99 56.3532 420.554 45.8087 418.661C35.2643 416.767 28.3628 406.133 30.3938 394.909Z" fill="white"/>
<path d="M86.443 404.95C88.5134 405.318 90.5055 403.838 90.9112 401.637C91.0711 400.757 90.9369 399.906 90.6108 399.164C92.3474 398.463 94.2564 398.21 96.2051 398.569C101.974 399.61 105.747 405.421 104.634 411.563C103.521 417.705 97.9398 421.843 92.1827 420.805C86.414 419.763 82.6404 413.953 83.7534 407.811C83.9828 406.549 84.4098 405.381 84.9816 404.315C85.4165 404.625 85.9086 404.863 86.4661 404.957L86.443 404.95Z" fill="#3953EA"/>
<path d="M47.5882 394.697C49.6585 395.064 51.6507 393.584 52.0563 391.384C52.2162 390.503 52.0821 389.653 51.756 388.911C53.4926 388.209 55.4015 387.957 57.3502 388.315C63.1188 389.357 66.8925 395.167 65.7794 401.309C64.6664 407.451 59.0849 411.59 53.3278 410.552C47.5592 409.51 43.7855 403.699 44.8986 397.558C45.128 396.296 45.5549 395.127 46.1268 394.062C46.5616 394.372 47.0538 394.61 47.6112 394.703L47.5882 394.697Z" fill="#3953EA"/>
<path d="M15.3055 449.211C15.3055 449.211 -1.32427 473.492 18.5079 488.694C31.8902 498.949 59.1976 502.326 67.0767 501.333C79.4982 499.774 86.839 494.852 86.839 494.852C86.839 494.852 98.1019 500.086 106.532 492.83C110.837 489.122 109.78 481.596 108.779 477.501C108.371 475.811 108.675 474.107 109.146 472.426C109.559 470.953 109.395 468.793 107.983 466.609C106.154 463.782 101.641 464.243 98.3059 466.173C95.6564 467.694 92.615 468.442 89.544 468.632C78.0943 469.337 66.6924 467.967 49.779 461.626" fill="#5968F2"/>
<path d="M120.155 431.735C120.155 431.735 119.966 434.271 118.457 437.038" stroke="#3953EA" stroke-miterlimit="10"/>
<path d="M58.3469 511.431C58.3469 511.431 60.7689 510.721 63.8732 511.166" stroke="#3953EA" stroke-miterlimit="10"/>
<path d="M58.6891 513.09C58.6891 513.09 62.1491 512.709 66.7949 513.636" stroke="#3953EA" stroke-miterlimit="10"/>
<path d="M3.31031 509.549C3.31031 509.549 9.89837 515.598 6.91388 524.517" stroke="#3953EA" stroke-miterlimit="10"/>
<path d="M-6.29476 359.856C-6.29476 359.856 -2.68194 352.151 6.33972 350.227" stroke="#3953EA" stroke-miterlimit="10"/>
<path d="M1.25906 490.15C-15.7811 486.875 -24.2354 473.748 -27.9032 467.117C-33.6883 456.653 -33.9284 447.718 -33.9284 447.718C-33.9284 447.718 -42.1747 443.242 -46.0098 432.511C-47.721 427.717 -49.0047 418.251 -40.6492 413.564C-39.1611 412.731 -33.6749 410.704 -29.4057 414.702C-29.0217 415.06 -28.4252 415.015 -28.0649 414.615C-27.0445 413.5 -25.4932 412.397 -23.4376 412.285C-20.2333 412.108 -17.9795 415.454 -17.6157 419.295C-17.33 422.352 -16.2036 425.157 -14.6165 427.603C-8.70733 436.739 -0.400847 446.759 14.2067 455.169" fill="url(#paint3_linear_13_160)"/>
<path d="M66.6581 539.113C66.6581 539.113 53.3888 535.544 35.024 539.076" stroke="#3953EA" stroke-miterlimit="10"/>
<path d="M66.6486 471.27C66.6486 471.27 89.3464 477.932 101.556 464.77" stroke="#3953EA" stroke-miterlimit="10"/>
<path d="M9.60007 458.355C-1.37786 451.751 -8.99082 440.674 -14.6699 429.964C-16.0438 427.378 -16.8667 422.294 -17.1409 419.241C-17.4899 415.391 -19.6563 411.644 -22.93 412.202C-25.4597 412.631 -27.2829 413.997 -28.2254 415.321C-28.2254 415.321 -34.8242 408.468 -41.8721 414.56C-48.2348 420.068 -47.4953 425.804 -46.5577 430.257" stroke="#3953EA" stroke-miterlimit="10"/>
<path d="M47.2492 425.946C50.9044 432.223 60.254 443.662 77.2875 443.771C95.4386 443.881 103.842 432.378 106.64 427.934C107.332 426.84 107.366 425.386 106.738 424.26L104.682 420.607C103.93 419.258 102.324 418.92 101.16 419.882C97.6649 422.78 90.44 426.933 83.0759 425.469C78.0026 424.472 72.3679 421.092 71.5747 419.181" fill="url(#paint4_linear_13_160)"/>
<path d="M47.2492 425.946C50.9044 432.223 60.254 443.662 77.2875 443.771C95.4386 443.881 103.842 432.378 106.64 427.934C107.332 426.84 107.366 425.386 106.738 424.26L104.682 420.607C103.93 419.258 102.324 418.92 101.16 419.882C97.6649 422.78 90.44 426.933 83.0759 425.469C78.0026 424.472 72.3679 421.092 71.5747 419.181" stroke="#3953EA" stroke-miterlimit="10"/>
<path d="M82.1495 428.774L82.2299 433.449" stroke="#3953EA" stroke-miterlimit="10"/>
<path d="M79.4993 428.482L77.9189 432.879" stroke="#3953EA" stroke-miterlimit="10"/>
</g>
</g>
</g>
<defs>
<filter id="filter0_d_13_160" x="-3.9585" y="3.21228" width="383" height="562.788" filterUnits="userSpaceOnUse" color-interpolation-filters="sRGB">
<feFlood flood-opacity="0" result="BackgroundImageFix"/>
<feColorMatrix in="SourceAlpha" type="matrix" values="0 0 0 0 0 0 0 0 0 0 0 0 0 0 0 0 0 0 127 0" result="hardAlpha"/>
<feOffset dy="4"/>
<feGaussianBlur stdDeviation="2"/>
<feComposite in2="hardAlpha" operator="out"/>
<feColorMatrix type="matrix" values="0 0 0 0 0 0 0 0 0 0 0 0 0 0 0 0 0 0 0.25 0"/>
<feBlend mode="normal" in2="BackgroundImageFix" result="effect1_dropShadow_13_160"/>
<feBlend mode="normal" in="SourceGraphic" in2="effect1_dropShadow_13_160" result="shape"/>
</filter>
<linearGradient id="paint0_linear_13_160" x1="338.931" y1="234.64" x2="272.442" y2="233.438" gradientUnits="userSpaceOnUse">
<stop offset="0.41" stop-color="#5968F2"/>
<stop offset="1" stop-color="#3953EA"/>
</linearGradient>
<linearGradient id="paint1_linear_13_160" x1="353.548" y1="231.693" x2="409.081" y2="195.124" gradientUnits="userSpaceOnUse">
<stop offset="0.41" stop-color="#5968F2"/>
<stop offset="1" stop-color="#3953EA"/>
</linearGradient>
<linearGradient id="paint2_linear_13_160" x1="328.742" y1="182.741" x2="308.748" y2="202.302" gradientUnits="userSpaceOnUse">
<stop offset="0.51" stop-color="#5968F2"/>
<stop offset="0.93" stop-color="#3953EA"/>
</linearGradient>
<linearGradient id="paint3_linear_13_160" x1="9.19615" y1="480.346" x2="-55.5033" y2="405.162" gradientUnits="userSpaceOnUse">
<stop offset="0.41" stop-color="#5968F2"/>
<stop offset="1" stop-color="#3953EA"/>
</linearGradient>
<linearGradient id="paint4_linear_13_160" x1="63.8725" y1="406.622" x2="87.9522" y2="439.554" gradientUnits="userSpaceOnUse">
<stop offset="0.51" stop-color="#5968F2"/>
<stop offset="0.93" stop-color="#3953EA"/>
</linearGradient>
<clipPath id="clip0_13_160">
<rect width="207" height="237" fill="white" transform="matrix(-0.962887 -0.269904 -0.269904 0.962887 162.529 348.131)"/>
</clipPath>
</defs>
</svg>
