<svg width="21" height="21" viewBox="0 0 21 21" fill="none" xmlns="http://www.w3.org/2000/svg">
<rect x="0.419922" y="1.98047" width="19.8516" height="18.0491" rx="3" fill="#DDE2FC"/>
<path d="M0.419922 4.98047C0.419922 3.32361 1.76307 1.98047 3.41992 1.98047H17.2715C18.9284 1.98047 20.2715 3.32361 20.2715 4.98047V6.89405H0.419922V4.98047Z" fill="#B0BDFF"/>
<path d="M5.59649 1.20213C5.59649 0.55439 5.02104 0.0292969 4.31118 0.0292969C3.60133 0.0292969 3.02588 0.55439 3.02588 1.20213V2.75664C3.02588 3.40438 3.60133 3.92947 4.31118 3.92947C5.02104 3.92947 5.59649 3.40438 5.59649 2.75664V1.20213Z" fill="#DDE2FC"/>
<path d="M11.6316 1.20213C11.6316 0.55439 11.0562 0.0292969 10.3463 0.0292969C9.63648 0.0292969 9.06104 0.55439 9.06104 1.20213V2.75664C9.06104 3.40438 9.63648 3.92947 10.3463 3.92947C11.0562 3.92947 11.6316 3.40438 11.6316 2.75664V1.20213Z" fill="#DDE2FC"/>
<path d="M17.7264 1.20213C17.7264 0.55439 17.1509 0.0292969 16.4411 0.0292969C15.7312 0.0292969 15.1558 0.55439 15.1558 1.20213V2.75664C15.1558 3.40438 15.7312 3.92947 16.4411 3.92947C17.1509 3.92947 17.7264 3.40438 17.7264 2.75664V1.20213Z" fill="#DDE2FC"/>
</svg>
