<svg width="21" height="21" viewBox="0 0 21 21" fill="none" xmlns="http://www.w3.org/2000/svg">
<path d="M10.4199 20.0293C15.9428 20.0293 20.4199 15.5521 20.4199 10.0293C20.4199 4.50645 15.9428 0.0292969 10.4199 0.0292969C4.89707 0.0292969 0.419922 4.50645 0.419922 10.0293C0.419922 15.5521 4.89707 20.0293 10.4199 20.0293Z" fill="#DDE2FC"/>
<path d="M10.4202 17.0962C14.323 17.0962 17.4869 13.9324 17.4869 10.0296C17.4869 6.12674 14.323 2.96289 10.4202 2.96289C6.51737 2.96289 3.35352 6.12674 3.35352 10.0296C3.35352 13.9324 6.51737 17.0962 10.4202 17.0962Z" fill="#B0BDFF"/>
<path d="M4.93652 20.0293C5.97206 20.0293 6.81152 19.1898 6.81152 18.1543C6.81152 17.1188 5.97206 16.2793 4.93652 16.2793C3.90099 16.2793 3.06152 17.1188 3.06152 18.1543C3.06152 19.1898 3.90099 20.0293 4.93652 20.0293Z" fill="#DDE2FC"/>
<path d="M15.9033 20.0293C16.9389 20.0293 17.7783 19.1898 17.7783 18.1543C17.7783 17.1188 16.9389 16.2793 15.9033 16.2793C14.8678 16.2793 14.0283 17.1188 14.0283 18.1543C14.0283 19.1898 14.8678 20.0293 15.9033 20.0293Z" fill="#DDE2FC"/>
<path d="M10.42 10.9378C10.9217 10.9378 11.3284 10.5311 11.3284 10.0294C11.3284 9.52777 10.9217 9.12109 10.42 9.12109C9.91839 9.12109 9.51172 9.52777 9.51172 10.0294C9.51172 10.5311 9.91839 10.9378 10.42 10.9378Z" fill="#5968F2"/>
<path d="M10.4199 9.12174V4.95508" stroke="#DDE2FC" stroke-miterlimit="10" stroke-linecap="round"/>
<path d="M10.4199 11.6406C11.3098 11.6406 12.0312 10.9192 12.0312 10.0293C12.0312 9.13938 11.3098 8.41797 10.4199 8.41797C9.53001 8.41797 8.80859 9.13938 8.80859 10.0293C8.80859 10.9192 9.53001 11.6406 10.4199 11.6406Z" fill="#DDE2FC"/>
<path d="M11.3281 10.0293H14.6615" stroke="#DDE2FC" stroke-miterlimit="10" stroke-linecap="round"/>
</svg>
