<svg width="16" height="21" viewBox="0 0 16 21" fill="none" xmlns="http://www.w3.org/2000/svg">
<path d="M15.8864 6.79432C15.5728 3.36298 12.8024 0.504606 9.36551 0.0878967C9.04535 0.0488301 8.72518 0.0292969 8.41809 0.0292969C8.11099 0.0292969 7.79082 0.0488301 7.47066 0.0878967C4.03379 0.504606 1.26338 3.36298 0.94975 6.79432C0.864808 7.79052 0.962818 8.74765 1.22418 9.62664C1.39406 10.2061 1.67502 10.7466 1.98865 11.2609L2.40683 11.9576L6.37949 18.5208L6.70806 19.0654C7.48334 20.3506 9.35283 20.3506 10.1281 19.0654L10.4567 18.5208L14.4293 11.9576L14.8541 11.2609C15.1677 10.7466 15.4421 10.2061 15.6185 9.63315C15.8799 8.74765 15.9779 7.79052 15.8864 6.79432ZM8.41809 10.8377C6.56897 10.8377 5.07922 9.34667 5.07922 7.51054C5.07922 5.67441 6.56897 4.18337 8.41809 4.18337C10.2672 4.18337 11.757 5.67441 11.757 7.51054C11.757 9.34667 10.2672 10.8377 8.41809 10.8377Z" fill="#DDE2FC"/>
<path d="M12.3044 7.68234C12.4019 5.54302 10.7406 3.73002 8.59377 3.63287C6.44694 3.53572 4.62756 5.19123 4.53007 7.33054C4.43259 9.46985 6.09391 11.2829 8.24074 11.38C10.3876 11.4772 12.207 9.82165 12.3044 7.68234Z" fill="#B0BDFF"/>
</svg>
