<svg width="21" height="24" viewBox="0 0 21 24" fill="none" xmlns="http://www.w3.org/2000/svg">
<g clip-path="url(#clip0_403_1060)">
<path d="M10.4999 0C9.67024 0 8.99993 0.670312 8.99993 1.5V2.33906C5.60149 2.87813 2.99993 5.82187 2.99993 9.375V10.9406C2.99993 13.0687 2.27337 15.1359 0.946803 16.7953L0.248366 17.6719C-0.0235091 18.0094 -0.0750716 18.4734 0.112428 18.8625C0.299928 19.2516 0.693678 19.5 1.12493 19.5H19.8749C20.3062 19.5 20.6999 19.2516 20.8874 18.8625C21.0749 18.4734 21.0234 18.0094 20.7515 17.6719L20.0531 16.8C18.7265 15.1359 17.9999 13.0687 17.9999 10.9406V9.375C17.9999 5.82187 15.3984 2.87813 11.9999 2.33906V1.5C11.9999 0.670312 11.3296 0 10.4999 0ZM10.4999 4.5H10.8749C13.5656 4.5 15.7499 6.68437 15.7499 9.375V10.9406C15.7499 13.1859 16.4015 15.375 17.6109 17.25H3.38899C4.59837 15.375 5.24993 13.1859 5.24993 10.9406V9.375C5.24993 6.68437 7.4343 4.5 10.1249 4.5H10.4999ZM13.4999 21H10.4999H7.49993C7.49993 21.7969 7.81399 22.5609 8.37649 23.1234C8.93899 23.6859 9.70305 24 10.4999 24C11.2968 24 12.0609 23.6859 12.6234 23.1234C13.1859 22.5609 13.4999 21.7969 13.4999 21Z" fill="black"/>
</g>
<defs>
<clipPath id="clip0_403_1060">
<rect width="21" height="24" fill="white"/>
</clipPath>
</defs>
</svg>
