<svg width="22" height="24" viewBox="0 0 22 24" fill="none" xmlns="http://www.w3.org/2000/svg">
<path d="M12.7158 1.3377C12.7158 0.598907 12.0493 0 11.2271 0C10.4048 0 9.73828 0.598907 9.73828 1.3377V3.11074C9.73828 3.84953 10.4048 4.44843 11.2271 4.44843C12.0493 4.44843 12.7158 3.84953 12.7158 3.11074V1.3377Z" fill="#B0BDFF"/>
<ellipse cx="11.2275" cy="21.4417" rx="2.59863" ry="2.55886" fill="#B0BDFF"/>
<path d="M1.81555 9.22981C1.81555 5.01037 6.0311 1.58984 11.2312 1.58984C16.4314 1.58984 20.6469 5.01037 20.6469 9.22981L20.6466 13.7497L20.6462 15.297C20.6462 15.4531 20.6853 16.5573 20.76 16.6951L21.8703 19.693C22.2136 20.3261 21.7477 21.0911 21.0189 21.0911H1.44212C0.713261 21.0911 0.247388 20.3261 0.590698 19.693L1.70103 16.6951C1.77573 16.5573 1.8148 15.4531 1.8148 15.297L1.81518 10.9289L1.81555 9.22981Z" fill="#5968F2"/>
</svg>
