<svg width="18" height="19" viewBox="0 0 18 19" fill="none" xmlns="http://www.w3.org/2000/svg">
<path d="M4.86592 15.3101C4.11007 15.8064 3.13611 15.1244 3.34388 14.2444L3.91001 11.8466C4.07243 11.1587 4.87784 10.8519 5.45683 11.2573L6.95022 12.303C7.52922 12.7084 7.51632 13.5702 6.92545 13.9581L4.86592 15.3101Z" fill="#DDE2FC"/>
<path d="M3.45569 16.1814C3.2337 16.313 2.96019 16.1214 3.00791 15.8678L3.26491 14.5017L4.6515 15.4726L3.45569 16.1814Z" fill="#5968F2"/>
<path d="M9.47931 2.84826C10.1129 1.94345 11.36 1.72356 12.2648 2.35711L12.9854 2.86171C13.8902 3.49526 14.1101 4.74236 13.4766 5.64717L8.33671 12.9876C8.01993 13.44 7.39638 13.55 6.94398 13.2332L4.58504 11.5815C4.13263 11.2647 4.02268 10.6411 4.33946 10.1887L9.47931 2.84826Z" fill="#5968F2"/>
<path d="M10.012 2.08948C10.6456 1.18467 11.8927 0.96477 12.7975 1.59832L13.5181 2.10292C14.4229 2.73647 14.6428 3.98357 14.0093 4.88838L13.936 4.99302L9.93875 2.19412L10.012 2.08948Z" fill="#B0BDFF"/>
<path d="M8.75977 16.7646H16.274" stroke="#5968F2" stroke-width="1.5" stroke-linecap="round"/>
</svg>
