<svg width="20" height="18" viewBox="0 0 20 18" fill="none" xmlns="http://www.w3.org/2000/svg">
<path d="M19.8025 15.5128C20.0209 16.5956 19.1046 17.5 18 17.5H2C0.895431 17.5 -0.0208533 16.5956 0.197463 15.5128C1.1187 10.9437 5.15451 7.5 10 7.5C14.8455 7.5 18.8813 10.9437 19.8025 15.5128Z" fill="#DDE2FC"/>
<circle cx="10" cy="5" r="5" fill="#DDE2FC"/>
<circle cx="10.1145" cy="4.8533" r="0.542752" fill="#B0BDFF"/>
<path fill-rule="evenodd" clip-rule="evenodd" d="M8.75016 3.75C8.98028 3.75 9.16683 3.93655 9.16683 4.16667V4.45486C9.16683 4.68498 8.98028 4.87153 8.75016 4.87153C8.52004 4.87153 8.3335 4.68498 8.3335 4.45486V4.16667C8.3335 3.93655 8.52004 3.75 8.75016 3.75Z" fill="#B0BDFF"/>
<path fill-rule="evenodd" clip-rule="evenodd" d="M11.4787 3.75C11.7088 3.75 11.8953 3.93655 11.8953 4.16667V4.45486C11.8953 4.68498 11.7088 4.87153 11.4787 4.87153C11.2486 4.87153 11.062 4.68498 11.062 4.45486V4.16667C11.062 3.93655 11.2486 3.75 11.4787 3.75Z" fill="#B0BDFF"/>
<path fill-rule="evenodd" clip-rule="evenodd" d="M11.475 6.01274C11.5913 6.21129 11.5247 6.46655 11.3261 6.58288C10.5779 7.02123 9.65133 7.02123 8.90315 6.58288C8.70459 6.46655 8.63794 6.21129 8.75427 6.01274C8.8706 5.81419 9.12586 5.74754 9.32441 5.86387C9.81243 6.14979 10.4168 6.14979 10.9049 5.86387C11.1034 5.74754 11.3587 5.81419 11.475 6.01274Z" fill="#B0BDFF"/>
</svg>
