<svg width="40" height="40" viewBox="0 0 40 40" fill="none" xmlns="http://www.w3.org/2000/svg">
<circle cx="20" cy="20" r="20" fill="#DDE2FC"/>
<path d="M31.8355 28.0084C32.0175 29.0978 31.1046 30 30 30H10C8.89543 30 7.98254 29.0979 8.16453 28.0084C9.11286 22.3312 14.0473 18 20 18C25.9527 18 30.8871 22.3312 31.8355 28.0084Z" fill="#5968F2"/>
<circle cx="20" cy="15" r="6" fill="#5968F2"/>
<circle cx="20.1371" cy="14.8251" r="0.651303" fill="#B0BDFF"/>
<path fill-rule="evenodd" clip-rule="evenodd" d="M18.5 13.5C18.7761 13.5 19 13.7239 19 14V14.3458C19 14.622 18.7761 14.8458 18.5 14.8458C18.2239 14.8458 18 14.622 18 14.3458V14C18 13.7239 18.2239 13.5 18.5 13.5Z" fill="#B0BDFF"/>
<path fill-rule="evenodd" clip-rule="evenodd" d="M21.7744 13.5C22.0506 13.5 22.2744 13.7239 22.2744 14V14.3458C22.2744 14.622 22.0506 14.8458 21.7744 14.8458C21.4983 14.8458 21.2744 14.622 21.2744 14.3458V14C21.2744 13.7239 21.4983 13.5 21.7744 13.5Z" fill="#B0BDFF"/>
<path fill-rule="evenodd" clip-rule="evenodd" d="M21.7697 16.2141C21.9093 16.4524 21.8293 16.7587 21.5911 16.8983C20.6932 17.4243 19.5813 17.4243 18.6835 16.8983C18.4452 16.7587 18.3652 16.4524 18.5048 16.2141C18.6444 15.9759 18.9507 15.8959 19.189 16.0355C19.7746 16.3786 20.4999 16.3786 21.0855 16.0355C21.3238 15.8959 21.6301 15.9759 21.7697 16.2141Z" fill="#B0BDFF"/>
</svg>
