<svg width="30" height="40" viewBox="0 0 30 40" fill="none" xmlns="http://www.w3.org/2000/svg">
<path d="M29.643 13.7874C29.0297 7.0775 23.6123 1.48805 16.8916 0.673184C16.2655 0.59679 15.6394 0.558594 15.0389 0.558594C14.4384 0.558594 13.8123 0.59679 13.1862 0.673184C6.46553 1.48805 1.04809 7.0775 0.434792 13.7874C0.268691 15.7354 0.460346 17.6071 0.971426 19.3259C1.30363 20.4591 1.85304 21.5158 2.46633 22.5217L3.28406 23.884L11.0525 36.7181L11.695 37.7832C13.211 40.2962 16.8668 40.2962 18.3828 37.7832L19.0253 36.7181L26.7937 23.884L27.6242 22.5217C28.2375 21.5158 28.7742 20.4591 29.1191 19.3386C29.6302 17.6071 29.8219 15.7354 29.643 13.7874ZM15.0389 21.6941C11.423 21.6941 8.50985 18.7784 8.50985 15.1879C8.50985 11.5974 11.423 8.68176 15.0389 8.68176C18.6548 8.68176 21.5679 11.5974 21.5679 15.1879C21.5679 18.7784 18.6548 21.6941 15.0389 21.6941Z" fill="#5968F2"/>
</svg>
