<svg width="25" height="24" viewBox="0 0 25 24" fill="none" xmlns="http://www.w3.org/2000/svg">
<path d="M2.08443 11.0783L1.29477 11.3382C0.485082 11.5981 0.0452339 12.4677 0.305132 13.2774L1.61465 17.2958C1.87455 18.1055 2.74418 18.5453 3.55386 18.2854L4.34356 18.0255C4.4935 17.9756 4.65344 18.0255 4.7534 18.1455C5.73302 19.265 6.95254 20.1647 8.34199 20.7545C8.48194 20.8144 8.58189 20.9544 8.58189 21.1043V21.934C8.58189 22.7837 9.27163 23.4734 10.1213 23.4734H14.3496C15.1993 23.4734 15.8891 22.7837 15.8891 21.934V21.1043C15.8891 20.9544 15.979 20.8144 16.1289 20.7545C17.5184 20.1647 18.7379 19.265 19.7175 18.1455C19.8175 18.0255 19.9774 17.9855 20.1274 18.0355L20.9071 18.2954C21.7168 18.5553 22.5864 18.1155 22.8463 17.3058L24.1558 13.2874C24.4157 12.4777 23.9759 11.608 23.1662 11.3482L22.3765 11.0982C22.2266 11.0483 22.1266 10.9183 22.1166 10.7684C21.9766 9.22898 21.4968 7.79954 20.7471 6.55003C20.6672 6.42008 20.6772 6.25015 20.7671 6.1302L21.2569 5.46046C21.7567 4.77073 21.6068 3.8111 20.9171 3.3113L17.4984 0.822275C16.8087 0.322471 15.8491 0.472412 15.3493 1.16214L14.8694 1.83188C14.7795 1.96183 14.6195 2.01181 14.4696 1.98182C13.7599 1.82188 13.0102 1.73192 12.2405 1.73192C11.4708 1.73192 10.731 1.82188 10.0213 1.98182C9.87139 2.01181 9.71145 1.96183 9.62149 1.83188L9.13169 1.16214C8.63189 0.472412 7.67227 0.322471 6.98254 0.822275L3.56386 3.3113C2.87414 3.8111 2.7242 4.77073 3.224 5.46046L3.70382 6.1302C3.79379 6.26014 3.80377 6.42008 3.72381 6.55003C2.9741 7.80954 2.4843 9.23898 2.35435 10.7784C2.34435 10.9283 2.24438 11.0683 2.09444 11.1082L2.08443 11.0783ZM10.901 7.52965C13.1601 6.78994 15.5891 8.02945 16.3289 10.2886C17.0586 12.5477 15.8291 14.9767 13.57 15.7064C11.3108 16.4462 8.8818 15.2066 8.14209 12.9475C7.41237 10.6884 8.64187 8.25936 10.901 7.52965Z" fill="#5968F2"/>
</svg>
