<svg width="20" height="20" viewBox="0 0 20 20" fill="none" xmlns="http://www.w3.org/2000/svg">
<path d="M10 20C15.5228 20 20 15.5228 20 10C20 4.47715 15.5228 0 10 0C4.47715 0 0 4.47715 0 10C0 15.5228 4.47715 20 10 20Z" fill="#DDE2FC"/>
<path d="M10.0003 17.0669C13.9031 17.0669 17.0669 13.9031 17.0669 10.0003C17.0669 6.09745 13.9031 2.93359 10.0003 2.93359C6.09745 2.93359 2.93359 6.09745 2.93359 10.0003C2.93359 13.9031 6.09745 17.0669 10.0003 17.0669Z" fill="#B0BDFF"/>
<path d="M4.5166 20C5.55214 20 6.3916 19.1605 6.3916 18.125C6.3916 17.0895 5.55214 16.25 4.5166 16.25C3.48107 16.25 2.6416 17.0895 2.6416 18.125C2.6416 19.1605 3.48107 20 4.5166 20Z" fill="#DDE2FC"/>
<path d="M15.4834 20C16.5189 20 17.3584 19.1605 17.3584 18.125C17.3584 17.0895 16.5189 16.25 15.4834 16.25C14.4479 16.25 13.6084 17.0895 13.6084 18.125C13.6084 19.1605 14.4479 20 15.4834 20Z" fill="#DDE2FC"/>
<path d="M10.0001 10.9085C10.5018 10.9085 10.9085 10.5018 10.9085 10.0001C10.9085 9.49847 10.5018 9.0918 10.0001 9.0918C9.49847 9.0918 9.0918 9.49847 9.0918 10.0001C9.0918 10.5018 9.49847 10.9085 10.0001 10.9085Z" fill="#5968F2"/>
<path d="M10 9.09245V4.92578" stroke="#DDE2FC" stroke-miterlimit="10" stroke-linecap="round"/>
<path d="M10 11.6113C10.8899 11.6113 11.6113 10.8899 11.6113 10C11.6113 9.11009 10.8899 8.38867 10 8.38867C9.11009 8.38867 8.38867 9.11009 8.38867 10C8.38867 10.8899 9.11009 11.6113 10 11.6113Z" fill="#DDE2FC"/>
<path d="M10.9082 10H14.2415" stroke="#DDE2FC" stroke-miterlimit="10" stroke-linecap="round"/>
</svg>
