<svg width="49" height="49" viewBox="0 0 49 49" fill="none" xmlns="http://www.w3.org/2000/svg">
<circle cx="24.0371" cy="24.793" r="24" fill="#F4F4F4"/>
<path d="M10.6572 16.0469C10.6572 14.39 12.0004 13.0469 13.6572 13.0469H30.6514C32.3082 13.0469 33.6514 14.39 33.6514 16.0469V30.9531C33.6514 32.61 32.3082 33.9531 30.6514 33.9531H13.6572C12.0004 33.9531 10.6572 32.61 10.6572 30.9531V16.0469Z" fill="#B0BDFF"/>
<path d="M10.6572 16.0469C10.6572 14.39 12.0004 13.0469 13.6572 13.0469H30.6514C32.3082 13.0469 33.6514 14.39 33.6514 16.0469V17.7383H10.6572V16.0469Z" fill="#DDE2FC"/>
<path d="M16.6533 12.1456C16.6533 11.3953 15.9868 10.7871 15.1646 10.7871C14.3423 10.7871 13.6758 11.3953 13.6758 12.1456V13.9462C13.6758 14.6965 14.3423 15.3047 15.1646 15.3047C15.9868 15.3047 16.6533 14.6965 16.6533 13.9462V12.1456Z" fill="#B0BDFF"/>
<path d="M23.6436 12.1456C23.6436 11.3953 22.977 10.7871 22.1548 10.7871C21.3326 10.7871 20.666 11.3953 20.666 12.1456V13.9462C20.666 14.6965 21.3326 15.3047 22.1548 15.3047C22.977 15.3047 23.6436 14.6965 23.6436 13.9462V12.1456Z" fill="#B0BDFF"/>
<path d="M30.7031 12.1456C30.7031 11.3953 30.0366 10.7871 29.2144 10.7871C28.3921 10.7871 27.7256 11.3953 27.7256 12.1456V13.9462C27.7256 14.6965 28.3921 15.3047 29.2144 15.3047C30.0366 15.3047 30.7031 14.6965 30.7031 13.9462V12.1456Z" fill="#B0BDFF"/>
<circle cx="29.916" cy="29.2988" r="9.5" fill="#5968F2"/>
<path d="M31.4043 25.3995C31.4043 24.6492 30.7378 24.041 29.9155 24.041C29.0933 24.041 28.4268 24.6492 28.4268 25.3995V33.2001C28.4268 33.9504 29.0933 34.5586 29.9155 34.5586C30.7378 34.5586 31.4043 33.9504 31.4043 33.2001V25.3995Z" fill="#DDE2FC"/>
<path d="M33.8163 30.7881C34.5666 30.7881 35.1748 30.1215 35.1748 29.2993C35.1748 28.4771 34.5666 27.8105 33.8163 27.8105L26.0157 27.8105C25.2654 27.8105 24.6572 28.4771 24.6572 29.2993C24.6572 30.1215 25.2654 30.7881 26.0157 30.7881L33.8163 30.7881Z" fill="#DDE2FC"/>
</svg>
