<svg width="95" height="143" viewBox="0 0 95 143" fill="none" xmlns="http://www.w3.org/2000/svg">
<path d="M66.7407 4.9891C60.8447 1.81129 54.2118 0.0917969 47.521 0.0917969C40.8303 0.0917969 34.1901 1.81129 28.3014 4.9891C5.60631 17.2287 0.382324 47.6573 0.382324 71.0918C0.382324 94.5263 5.60631 124.955 28.3014 137.195C34.1974 140.372 40.8303 142.092 47.521 142.092C54.2118 142.092 60.852 140.372 66.7407 137.195C89.4286 124.955 94.6598 94.5263 94.6598 71.0918C94.6598 47.6573 89.4358 17.2287 66.7407 4.9891ZM56.3794 64.0252C52.3549 76.1415 42.0008 80.6615 41.5601 80.8501C41.2855 80.9662 40.9965 81.0243 40.7147 81.0243C39.8693 81.0243 39.0673 80.5236 38.7205 79.6965C38.258 78.5937 38.7711 77.3168 39.8693 76.8452C39.9849 76.7944 48.8867 72.8331 52.2682 62.6539C52.6439 61.5149 53.8722 60.8982 55.0066 61.2754C56.141 61.6527 56.7552 62.8861 56.3794 64.0252Z" fill="#DCF861"/>
</svg>
