<svg width="62" height="142" viewBox="0 0 62 142" fill="none" xmlns="http://www.w3.org/2000/svg">
<path d="M61.3746 116.492V32.4194C61.3746 23.696 58.3694 15.2197 52.7394 9.15691C48.1476 4.19909 41.2233 0.0917969 30.8991 0.0917969C13.2631 0.0917969 -4.32172 15.3869 1.5277 36.9338C4.02833 46.1443 11.5521 50.6224 19.2953 50.4842C20.0704 50.4624 32.6174 49.8445 37.5455 39.4927C37.9769 38.584 39.0664 38.1987 39.9803 38.6276C40.8943 39.0565 41.2818 40.1397 40.8504 41.0484C34.7963 53.7483 19.9388 54.1117 19.3099 54.1263H19.2953V116.492C19.2953 116.492 18.9224 141.092 40.3386 141.092C61.7548 141.092 61.3819 116.492 61.3819 116.492H61.3746Z" fill="#DCF861"/>
</svg>
