<svg width="99" height="142" viewBox="0 0 99 142" fill="none" xmlns="http://www.w3.org/2000/svg">
<path d="M45.8808 113.274C44.8187 113.274 43.9299 112.447 43.8649 111.381C43.5614 106.418 44.3057 92.7203 60.021 82.766C70.9458 75.8445 85.3245 65.7742 85.3606 42.8621C85.3895 26.0081 73.1496 1.3112 43.4531 0.368016C31.5311 -0.00925797 18.9878 4.01016 10.4545 12.6076C-1.87207 25.0214 -5.12352 51.2637 11.8129 61.3412C18.4314 65.2809 27.8389 65.8323 34.2912 61.2034C44.6669 53.7595 41.4733 43.1741 39.8692 39.3868C39.5152 38.5597 39.8259 37.602 40.599 37.1449C41.5094 36.6008 42.7088 36.9636 43.1424 37.9358C45.9675 44.3857 47.4271 56.1102 36.3143 64.0765C32.6511 66.7101 28.0268 68.0233 23.2652 68.0233C22.362 68.0233 21.4588 67.9725 20.5484 67.8782L2.48486 107.173C0.0643428 112.433 -0.607632 118.404 0.916934 123.99C2.20306 128.735 5.12938 133.872 11.3649 137.522C15.4906 139.938 20.2305 141.077 25.0065 141.077H65.7074C71.7479 141.077 77.7594 139.8 83.1713 137.101C94.0022 131.696 100.014 120.646 98.3808 108.58C97.0586 98.7566 91.1915 90.3115 81.7623 86.858C74.9993 84.384 66.7551 84.4638 60.4834 88.28C49.0022 95.2669 47.8606 106.578 47.9112 111.192C47.9256 112.324 47.0152 113.253 45.888 113.253L45.8808 113.274Z" fill="#DCF861"/>
</svg>
