<svg width="96" height="141" viewBox="0 0 96 141" fill="none" xmlns="http://www.w3.org/2000/svg">
<path d="M47.6744 98.6506C48.8883 98.9844 50.1527 98.3169 50.5574 97.1198C51.9663 92.9262 54.199 83.1534 48.5415 74.2076C41.8868 63.6948 28.1802 63.9414 28.1802 63.9414C31.1282 58.87 33.0068 53.2617 33.0068 53.2617C33.0068 53.2617 42.6527 51.0561 48.0863 43.6195C52.5877 37.4525 53.462 30.5672 53.6065 27.2516C53.6499 26.156 52.7756 25.2419 51.6845 25.2274H51.6701C50.6079 25.2201 49.7553 26.069 49.712 27.1428C49.3218 35.6604 43.2886 45.8468 35.0805 48.3426C17.8045 53.5954 3.7221 42.7488 4.37239 26.7074C5.45621 0.189453 30.7452 0.189453 30.7452 0.189453H68.7943C72.7394 0.189453 76.6556 1.03832 80.1672 2.83762C82.9995 4.29593 85.9837 6.53055 88.2235 9.9768C91.9013 15.6286 92.2409 22.8476 89.4735 29.0001L72.4432 66.8871C72.4432 66.8871 99.9143 75.1581 94.6686 104.498C89.4229 133.839 63.2019 140.107 48.4692 140.107C24.618 140.107 2.73944 125.459 1.02701 102.75C-1.04669 75.2742 16.6845 66.6622 28.9967 68.1495C38.8594 69.3394 52.1542 76.5874 46.0487 95.6469C45.6368 96.9311 46.3955 98.3024 47.6889 98.6651L47.6744 98.6506Z" fill="#DCF861"/>
</svg>
