<svg width="114" height="143" viewBox="0 0 114 143" fill="none" xmlns="http://www.w3.org/2000/svg">
<path d="M109.187 56.6686C105.885 51.7712 100.604 48.5862 94.7726 47.8389C93.5226 47.6793 92.3015 47.6285 91.1093 47.672C78.92 48.1218 69.9677 58.7726 68.8766 70.8598C68.7755 71.9917 67.8506 72.8623 66.7307 72.8623H66.6873C65.4157 72.8405 64.4475 71.7305 64.5631 70.4608C65.2928 62.4437 69.0573 54.833 74.8954 49.7543C79.5053 45.7421 85.1194 43.5293 91.0298 43.3189H91.1093V20.6607C91.1093 12.3607 86.2755 3.32786 77.7423 1.33991C76.5934 1.07872 75.4301 0.955385 74.2812 0.969896C70.589 1.02794 67.0341 2.53703 64.3896 5.30854L6.3694 66.0278C0.697433 71.9626 -1.13061 80.7705 2.11361 88.3233C4.4691 93.7865 9.45465 98.7055 19.6425 99.5181H43.566V117.069C43.566 117.069 43.1541 142.092 67.3376 142.092C91.5211 142.092 91.1093 117.069 91.1093 117.069V96.7103C104.982 93.3439 111.528 84.0209 113.075 73.1307C113.891 67.4063 112.403 61.4425 109.187 56.6686ZM56.4561 55.261C52.4315 67.3773 42.0775 71.8973 41.6367 72.086C41.3622 72.2021 41.0732 72.2529 40.7914 72.2529C39.9532 72.2529 39.144 71.7595 38.7971 70.9251C38.3347 69.8223 38.8477 68.5454 39.946 68.0738C40.0616 68.023 48.9633 64.0617 52.3448 53.8825C52.7206 52.7435 53.9489 52.1195 55.0833 52.504C56.2177 52.8886 56.8318 54.122 56.4561 55.261Z" fill="#DCF861"/>
</svg>
