<svg width="94" height="142" viewBox="0 0 94 142" fill="none" xmlns="http://www.w3.org/2000/svg">
<path d="M13.6614 128.316C3.75529 118.587 -5.29818 99.694 5.12812 87.2367C16.4865 73.6621 37.7943 82.0274 44.514 96.1461C44.9619 97.0966 46.0457 97.5537 47.0284 97.1764C48.0978 96.7628 48.6252 95.5222 48.1339 94.4847C43.8781 85.4809 34.6295 78.4723 24.4778 76.7528C19.0587 75.8387 13.9865 76.5207 9.60067 78.69V30.8851C9.60067 30.1813 9.60788 29.4703 9.68014 28.7665C9.93303 26.307 10.6122 23.8982 11.472 21.5838C13.1628 17.0348 15.8362 12.8702 19.3405 9.51105C23.0689 5.94146 27.5992 3.41663 32.4403 1.76243C35.2293 0.811993 38.17 0.347656 41.118 0.347656H68.04C74.3839 0.347656 80.6122 2.47345 85.4171 6.63071C90.8723 11.3539 95.4532 19.2331 91.9417 31.879C85.2148 56.1406 51.024 53.4997 51.7032 26.9454C51.7249 25.9878 51.1397 25.0736 50.2148 24.8414C48.9576 24.5294 47.7726 25.4581 47.7365 26.706C47.5486 33.2358 49.2177 39.0182 52.6064 43.5382C53.5024 44.7354 54.5212 45.8309 55.6266 46.8176C55.7061 46.8829 55.7856 46.9555 55.8651 47.0208C51.3492 46.1719 46.6599 45.9252 41.9778 46.346C40.8073 46.4476 39.8536 47.4416 39.9041 48.6169C39.9619 49.8721 41.0313 50.8008 42.2524 50.6919C56.2264 49.4295 71.4287 54.7476 80.2582 65.8917C88.1122 75.8096 91.5371 89.9429 90.2365 102.429C88.4807 119.283 76.8333 132.88 61.0602 138.394C59.2972 139.01 57.498 139.525 55.6772 139.932C45.157 142.29 33.8926 141.078 24.2828 136.086C20.381 134.055 16.8116 131.399 13.6758 128.316C3.76971 118.587 -5.28376 99.694 5.14254 87.2367" fill="#DCF861"/>
</svg>
