<svg width="94" height="141" viewBox="0 0 94 141" fill="none" xmlns="http://www.w3.org/2000/svg">
<path d="M54.5732 46.8538H54.5588C49.8189 50.9095 43.9447 53.6375 37.3984 53.6375H37.3767C36.2785 53.6375 35.4331 52.6653 35.527 51.577L35.5776 51.0183C35.6571 50.0244 36.4952 49.2916 37.4851 49.2843C41.2279 49.2553 44.8189 48.1162 48.0632 46.1936C56.6687 41.0931 62.8175 30.4787 62.8175 20.539C62.8175 15.3152 61.1123 10.2728 57.1816 6.31866C47.7091 -3.20024 30.0718 -1.36466 21.6397 8.53877C18.7568 11.927 16.0328 16.447 15.0646 20.8727C15.0574 20.9162 8.43163 51.2505 3.7351 72.7261C2.93308 76.39 2.17441 79.8725 1.47354 83.0866C-4.72588 111.469 15.9389 139.112 44.8623 140.062C45.397 140.077 45.9317 140.091 46.4736 140.091C72.6585 140.091 93.8941 119.065 93.8941 93.1279C93.8941 69.9255 76.9071 50.6556 54.5805 46.8538H54.5732ZM56.5025 84.5014C52.4779 96.6177 42.1238 101.138 41.6831 101.326C41.4085 101.442 41.1195 101.5 40.8377 101.5C39.9924 101.5 39.1903 101 38.8435 100.173C38.3811 99.0699 38.8941 97.793 39.9924 97.3214C40.108 97.2706 49.0096 93.3093 52.3912 83.1301C52.7669 81.9911 53.9952 81.3744 55.1296 81.7516C56.264 82.1289 56.8782 83.3623 56.5025 84.5014Z" fill="#DCF861"/>
</svg>
