<svg width="90" height="142" viewBox="0 0 90 142" fill="none" xmlns="http://www.w3.org/2000/svg">
<path d="M24.8894 112.471C23.3649 120.285 25.4674 128.476 30.9009 134.266C34.4559 138.06 39.6293 141.093 47.057 141.093C66.8619 141.093 71.5368 118.202 71.5368 118.202L89.6798 25.3278C89.6798 2.06017 68.7333 0.376953 68.7333 0.376953C68.7333 0.376953 23.5599 0.376953 23.5166 0.376953C6.76079 0.376953 -3.53547 20.5538 1.2839 35.4054C5.14228 47.2967 18.242 54.6463 30.359 51.1638C40.0628 48.3705 44.6293 37.8431 45.7131 28.404C45.8504 27.2287 46.8691 26.358 48.0469 26.4306C49.3041 26.5104 50.2579 27.6277 50.1134 28.8829C49.5065 34.172 47.9675 39.2724 45.6915 43.4514C43.3215 47.8046 40.1784 51.1493 36.4573 53.3404L24.8967 112.478L24.8894 112.471Z" fill="#DCF861"/>
</svg>
