<svg width="94" height="141" viewBox="0 0 94 141" fill="none" xmlns="http://www.w3.org/2000/svg">
<path d="M93.1178 93.7812C93.1178 119.363 72.4675 140.092 47.0051 140.092C21.5426 140.092 0.87793 119.363 0.87793 93.7812C0.87793 80.3445 6.58602 68.25 15.6901 59.7903C22.258 53.6814 30.5962 49.4733 39.8375 48.0296C40.943 47.8554 41.6582 46.7817 41.3981 45.7006C41.1886 44.8155 40.401 44.2205 39.5195 44.2205C39.4184 44.2205 39.3172 44.2205 39.216 44.2423C29.5123 45.7804 20.719 50.1263 13.7103 56.4311C10.8996 51.0913 9.30281 44.9969 9.30281 38.5324C9.30281 17.289 26.456 0.0722656 47.6048 0.0722656C68.7537 0.0722656 85.914 17.289 85.914 38.5324C85.914 46.6946 83.3707 54.2691 79.0426 60.5013H79.0499C74.9386 66.4289 69.2233 71.1158 62.5325 73.9671C61.81 74.2718 61.3765 74.9756 61.3765 75.7229C61.3765 76.0058 61.4343 76.2888 61.5643 76.5572C62.0051 77.4787 63.1034 77.8777 64.0355 77.4787C71.1381 74.446 77.2363 69.5269 81.7233 63.3309C88.8187 71.4713 93.1178 82.1148 93.1178 93.7812Z" fill="#DCF861"/>
</svg>
