<svg width="93" height="141" viewBox="0 0 93 141" fill="none" xmlns="http://www.w3.org/2000/svg">
<path d="M44.1745 0.122468C20.2944 1.22527 1.0387 20.9088 0.337835 44.9019C-0.334131 67.8866 15.728 87.2437 37.1948 91.5968L32.5488 114.509C30.9953 127.242 40.3451 138.604 52.9246 139.975C62.5127 141.02 70.8147 135.092 75.4462 127.024C76.5011 125.189 77.3754 123.237 78.0257 121.22L90.7352 58.5636L91.4144 55.2044C92.0069 52.2878 92.3754 49.3277 92.3826 46.353C92.3826 46.3312 92.3826 46.3095 92.3826 46.2877C92.3826 20.0382 70.5834 -1.09642 44.1745 0.122468ZM55.9303 38.9671C51.9057 51.0834 41.5517 55.6035 41.1109 55.7921C40.8363 55.9082 40.5474 55.9662 40.2656 55.9662C39.4202 55.9662 38.6182 55.4656 38.2714 54.6385C37.8089 53.5357 38.3219 52.2588 39.4202 51.7872C39.543 51.7364 48.4375 47.775 51.819 37.5959C52.1948 36.4568 53.4231 35.8401 54.5575 36.2174C55.6919 36.5947 56.306 37.8281 55.9303 38.9671Z" fill="#DCF861"/>
</svg>
