<svg width="65" height="24" viewBox="0 0 65 24" fill="none" xmlns="http://www.w3.org/2000/svg">
<path d="M64.4161 18.0004C64.4161 15.9104 63.3414 14.07 61.7126 12.9957C60.1482 15.1339 57.6121 16.5254 54.7487 16.5254C54.5133 16.5254 54.3224 16.3356 54.3224 16.1013C54.3224 15.8671 54.5133 15.6772 54.7487 15.6772C57.2923 15.6772 59.5498 14.459 60.9648 12.5754L60.9628 12.5744C61.8721 11.2776 62.406 9.70065 62.406 7.99973C62.406 3.61144 58.8562 0.0496033 54.4582 0H38.3775V0.00320021C35.1204 0.0864058 32.5049 2.73858 32.5049 5.9996C32.5049 8.089 33.5783 9.92794 35.2059 11.0024C35.2085 10.9986 35.2112 10.9948 35.2139 10.9911C36.7718 8.8626 39.3571 7.47485 42.2768 7.47485C42.5123 7.47485 42.7032 7.66473 42.7032 7.89896C42.7032 8.13319 42.5123 8.32306 42.2768 8.32306C39.6631 8.32306 37.357 9.5499 35.9532 11.4228C35.9551 11.4237 35.9571 11.4247 35.959 11.4256C35.0488 12.7224 34.515 14.2994 34.515 16.0003C34.515 20.3886 38.0656 23.9504 42.4636 24H58.5442V23.9976C61.8014 23.9144 64.4169 21.2622 64.4169 18.0012L64.4161 18.0004Z" fill="#5968F2"/>
<path fill-rule="evenodd" clip-rule="evenodd" d="M25.2717 23.8481C29.6653 23.8481 30.9252 21.0907 31.4544 18.2382C32.3711 14.2737 31.3134 5.996 31.3134 5.996C31.3134 2.72298 28.6696 0.0639574 25.3861 0.00319787V0H6.57879C3.24217 0 0.537109 2.68461 0.537109 5.996C0.537109 9.30739 3.24217 11.992 6.57879 11.992H8.92377C9.49359 13.7729 9.17833 15.9943 9.00617 17.2073C8.9678 17.4777 8.93654 17.6979 8.92377 17.8521C8.61363 21.5896 11.6288 23.8481 14.9654 23.8481C17.0948 23.8481 18.9808 22.74 20.0576 21.0874C20.7714 19.3432 20.8783 17.2722 20.7849 15.5599C20.7348 14.6421 20.628 13.8411 20.5339 13.2701C20.4868 12.9848 20.443 12.7575 20.4112 12.6025C20.3952 12.525 20.3823 12.4656 20.3735 12.426C20.3718 12.4184 20.3703 12.4115 20.3689 12.4054C20.3667 12.3956 20.3649 12.3877 20.3635 12.3818L20.361 12.3713L20.3605 12.3691L20.3605 12.3688C20.3061 12.141 20.4465 11.9122 20.6743 11.8577C20.9021 11.8032 21.1309 11.9437 21.1854 12.1715L20.7729 12.2702C21.1854 12.1715 21.1854 12.1717 21.1855 12.1718L21.1858 12.1733L21.1867 12.1771L21.1899 12.1907C21.1918 12.1988 21.1942 12.2093 21.1971 12.2223C21.1984 12.2282 21.1999 12.2345 21.2014 12.2414C21.2112 12.2854 21.2251 12.3495 21.242 12.4319C21.2759 12.5966 21.3217 12.8348 21.3708 13.132C21.4687 13.7261 21.5797 14.5584 21.6318 15.5137C21.7332 17.3719 21.6153 19.7491 20.6991 21.7393C21.8036 23.0249 23.4364 23.8481 25.2717 23.8481ZM20.3605 12.3688C20.3605 12.3688 20.3604 12.3688 20.3605 12.3688Z" fill="#5968F2"/>
</svg>
