<svg width="207" height="105" viewBox="0 0 207 105" fill="none" xmlns="http://www.w3.org/2000/svg">
<mask id="mask0_941_5201" style="mask-type:alpha" maskUnits="userSpaceOnUse" x="0" y="0" width="207" height="105">
<rect x="0.836914" y="0.331055" width="205.25" height="104.268" fill="#D9D9D9"/>
</mask>
<g mask="url(#mask0_941_5201)">
<path d="M47.0149 121.086C47.4583 120.333 47.4491 118.985 47.4873 118.496C47.7444 115.332 49.6874 110.726 49.7351 109.543C49.7829 108.228 48.3194 103.895 48.6026 101.92C48.6402 101.654 48.1852 99.3989 48.4167 99.2666L65.4306 95.7905C65.5571 95.7192 65.702 95.6819 65.8472 95.6832L85.8443 94.135C86.129 94.1343 86.8885 94.965 87.0424 95.2061C87.3867 95.737 88.4762 97.5864 88.5105 98.9571C88.5199 99.2935 88.7184 99.5958 89.028 99.7291C90.3129 100.294 93.4343 102.196 92.8545 107.22C92.7791 107.883 93.4385 108.381 94.0433 108.104C95.967 107.212 99.1148 106.048 99.3811 107.795C99.7596 110.258 90.5498 115.689 90.0428 115.989C90.0259 115.998 90.0134 116.006 89.9965 116.015C89.5682 116.227 83.2346 119.383 77.7507 121.357C76.5403 121.794 75.2162 121.153 74.7725 119.936C74.1597 118.269 73.066 116.309 71.3395 116.599C69.4092 116.922 69.6291 119.726 70.0076 121.608C70.214 122.634 74.2009 122.179 73.7084 123.772C72.824 126.638 62.8023 127.06 56.0549 126.828C56.0549 126.828 47.3671 126.504 46.1501 125.622C44.933 124.74 46.0822 122.677 47.0172 121.095L47.0149 121.086Z" fill="#5968F2"/>
<path d="M58.6688 55.3942C56.229 45.9201 61.9117 36.2615 71.3667 33.8266C80.8217 31.3918 90.457 37.1009 92.8979 46.5796C93.8215 50.1659 93.5791 53.7814 92.4083 57.0163C94.0891 58.3116 95.3735 60.1494 95.944 62.3648C97.3013 67.6352 94.1402 73.0043 88.8829 74.3582C84.0965 75.5907 79.2361 73.0667 77.3782 68.627C68.8995 69.3969 60.8609 63.9253 58.6631 55.3908L58.6688 55.3942Z" fill="#5968F2"/>
<path d="M16.8086 50.2734C22.784 40.6265 35.4315 37.6697 45.0678 43.6642C54.7008 49.6643 57.6664 62.3431 51.6967 71.9933C49.4356 75.6446 46.2133 78.338 42.5675 79.9497C42.837 82.4023 42.3256 84.9543 40.9318 87.2108C37.6108 92.5775 30.5738 94.2202 25.2148 90.8855C20.3379 87.8477 18.5466 81.7354 20.7681 76.6179C13.3068 70.1069 11.435 58.9569 16.8132 50.2722L16.8086 50.2734Z" fill="#5968F2"/>
<path d="M30.1549 74.7991C30.1121 74.6891 30.0659 74.5848 30.0276 74.4737C26.1037 63.155 35.4429 49.7327 50.8757 44.4854C66.1456 39.2994 81.6549 44.0622 85.7867 55.1192C88.3025 57.1821 90.2441 59.9592 91.2403 63.2654L91.5022 64.1322C94.2371 73.1964 88.8909 82.7925 79.5633 85.5721L52.8921 93.5102C43.5633 96.2852 33.7819 91.1898 31.0424 82.1268L30.7805 81.26C30.1288 79.1043 29.942 76.916 30.1492 74.7957L30.1549 74.7991Z" fill="#5968F2"/>
<path d="M67.4099 44.0237C75.4017 45.1508 81.8553 49.38 84.1176 55.8212C85.2433 56.7802 86.2364 57.8992 87.0582 59.1591C87.88 60.4191 88.5501 61.8584 88.9804 63.3983L89.2054 64.1971" stroke="#3953EA" stroke-width="0.6" stroke-miterlimit="10"/>
<path d="M67.6265 63.4801C66.1176 59.3044 68.0875 54.7638 72.0264 53.3383C75.9653 51.9129 80.3816 54.1424 81.8905 58.3181C83.3994 62.4938 81.4295 67.0344 77.4906 68.4599C73.5517 69.8853 69.1354 67.6558 67.6265 63.4801Z" fill="white"/>
<path d="M52.0708 67.7398C50.5619 63.5641 52.5318 59.0235 56.4707 57.5981C60.4096 56.1727 64.8259 58.4022 66.3348 62.5779C67.8437 66.7536 65.8738 71.2942 61.9349 72.7196C57.996 74.1451 53.5797 71.9155 52.0708 67.7398Z" fill="white"/>
<path d="M73.0042 60.1553C73.7767 59.874 74.1613 58.986 73.868 58.166C73.7498 57.8382 73.538 57.5781 73.2825 57.3922C73.7329 56.8163 74.3295 56.3577 75.0591 56.0972C77.2151 55.3194 79.6291 56.5372 80.4542 58.8225C81.2793 61.1078 80.2003 63.5929 78.0489 64.3697C75.8928 65.1475 73.4788 63.9297 72.6537 61.6445C72.4845 61.1749 72.4003 60.698 72.3854 60.2275C72.5931 60.2466 72.8062 60.2304 73.0132 60.1529L73.0042 60.1553Z" fill="#3953EA"/>
<path d="M57.8474 64.3037C58.62 64.0225 59.0045 63.1344 58.7113 62.3144C58.5931 61.9866 58.3812 61.7265 58.1257 61.5406C58.5762 60.9648 59.1727 60.5062 59.9023 60.2457C62.0584 59.4678 64.4724 60.6856 65.2975 62.9709C66.1226 65.2562 65.0436 67.7414 62.8921 68.5181C60.7361 69.296 58.3221 68.0782 57.497 65.7929C57.3278 65.3233 57.2436 64.8464 57.2287 64.3759C57.4364 64.395 57.6495 64.3789 57.8565 64.3014L57.8474 64.3037Z" fill="#3953EA"/>
<path d="M57.5897 88.9712C57.5897 88.9712 56.713 100.398 66.3991 101.636C72.9345 102.47 82.8365 98.2648 85.3085 96.389C89.2072 93.4342 90.7284 90.3414 90.7284 90.3414C90.7284 90.3414 95.564 89.8997 96.997 85.8082C97.7285 83.7174 95.8981 81.3909 94.7582 80.2081C94.2894 79.7189 94.0588 79.086 93.8893 78.4278C93.7409 77.8512 93.2625 77.1564 92.3573 76.6973C91.1855 76.1035 89.7484 77.1416 88.9972 78.4435C88.3983 79.4739 87.5155 80.3209 86.5133 80.9856C82.7766 83.463 78.6499 85.2324 71.6853 86.4063" fill="#5968F2"/>
<path d="M32.0054 61.9023C32.0054 61.9023 31.8097 62.8676 32.0855 64.0697" stroke="#3953EA" stroke-width="0.6" stroke-miterlimit="10"/>
<path d="M89.6531 62.5765C89.6531 62.5765 90.0853 63.4672 90.1162 64.6936" stroke="#3953EA" stroke-width="0.6" stroke-miterlimit="10"/>
<path d="M84.3305 101.496C84.3305 101.496 85.0113 100.784 86.1489 100.326" stroke="#3953EA" stroke-width="0.6" stroke-miterlimit="10"/>
<path d="M84.7706 101.988C84.7706 101.988 85.867 101.183 87.6206 100.586" stroke="#3953EA" stroke-width="0.6" stroke-miterlimit="10"/>
<path d="M32.7959 63.1164C32.7959 63.1164 32.5109 59.8159 35.1875 57.4033" stroke="#3953EA" stroke-width="0.6" stroke-miterlimit="10"/>
<path d="M60.8471 105.5C54.4395 107.731 49.0101 104.966 46.4713 103.451C42.4659 101.06 40.6363 98.0996 40.6363 98.0996C40.6363 98.0996 36.97 98.2063 33.5724 95.3442C32.0551 94.0649 29.7686 91.1298 31.6792 87.9173C32.0196 87.3456 33.4796 85.59 35.7068 86.1008C35.9067 86.1461 36.0997 86.0141 36.1435 85.8092C36.2707 85.2343 36.5797 84.5593 37.2535 84.1196C38.3032 83.433 39.7206 84.1184 40.5954 85.3405C41.2903 86.3136 42.2203 87.0374 43.236 87.5504C47.0233 89.4698 51.7951 91.218 58.384 91.1912" fill="url(#paint0_linear_941_5201)"/>
<path d="M79.2811 86.352C79.2811 86.352 88.266 84.1544 89.8223 77.335" stroke="#3953EA" stroke-width="0.6" stroke-miterlimit="10"/>
<path d="M57.4484 93.1658C52.4411 93.0902 47.6973 90.8507 43.6799 88.3565C42.7088 87.7546 41.4356 86.2043 40.7453 85.2299C39.8739 84.0022 38.4076 83.1647 37.409 83.9931C36.6369 84.6324 36.287 85.4486 36.2271 86.0788C36.2271 86.0788 32.6531 85.0629 31.46 88.4924C30.865 90.1946 31.018 91.5009 31.4672 92.5518" stroke="#3953EA" stroke-width="0.6" stroke-miterlimit="10"/>
<path d="M63.848 74.89C66.3133 76.2882 71.7155 78.3097 77.5013 75.0142C83.6654 71.5002 84.2584 65.9841 84.3358 63.9407C84.3558 63.437 84.0832 62.9409 83.6502 62.6845L82.2396 61.8569C81.7211 61.5499 81.1113 61.7506 80.9056 62.3021C80.2899 63.9613 78.6576 66.7729 75.8791 67.7208C73.9671 68.3777 71.3988 68.342 70.7565 67.854" fill="url(#paint1_linear_941_5201)"/>
<path d="M63.848 74.89C66.3133 76.2882 71.7155 78.3097 77.5013 75.0142C83.6654 71.5002 84.2584 65.9841 84.3358 63.9407C84.3558 63.437 84.0832 62.9409 83.6502 62.6845L82.2396 61.8569C81.7211 61.5499 81.1113 61.7506 80.9056 62.3021C80.2899 63.9613 78.6576 66.7729 75.8791 67.7208C73.9671 68.3777 71.3988 68.342 70.7565 67.854" stroke="#3953EA" stroke-width="0.6" stroke-miterlimit="10"/>
<path d="M76.2121 69.0144L77.1541 70.5725" stroke="#3953EA" stroke-width="0.6" stroke-miterlimit="10"/>
<path d="M75.2578 69.4346L75.5834 71.2241" stroke="#3953EA" stroke-width="0.6" stroke-miterlimit="10"/>
<path d="M163.259 117.083C162.645 116.461 162.324 115.152 162.167 114.687C161.143 111.682 158.132 107.693 157.796 106.557C157.428 105.294 157.786 100.734 157.028 98.8884C156.926 98.6395 156.815 96.3419 156.559 96.2704L139.211 97.0649C139.071 97.0268 138.922 97.0261 138.781 97.0629L119.013 100.457C118.737 100.526 118.204 101.517 118.114 101.789C117.91 102.388 117.307 104.448 117.609 105.785C117.682 106.114 117.564 106.455 117.296 106.66C116.188 107.522 113.628 110.131 115.42 114.86C115.655 115.484 115.138 116.129 114.484 116.008C112.4 115.614 109.063 115.256 109.232 117.015C109.468 119.496 119.727 122.507 120.292 122.674C120.311 122.678 120.325 122.683 120.344 122.688C120.811 122.789 127.724 124.298 133.525 124.869C134.805 124.997 135.932 124.051 136.064 122.762C136.25 120.996 136.831 118.828 138.576 118.687C140.527 118.527 141 121.3 141.094 123.217C141.145 124.263 137.168 124.797 138.035 126.222C139.594 128.784 149.414 126.74 155.9 124.863C155.9 124.863 164.244 122.422 165.208 121.269C166.172 120.116 164.553 118.397 163.259 117.092L163.259 117.083Z" fill="#5968F2"/>
<path d="M135.879 56.2411C135.925 46.458 128.051 38.4843 118.288 38.4381C108.524 38.3919 100.58 46.286 100.533 56.0738C100.516 59.7771 101.636 63.2232 103.563 66.0731C102.25 67.7404 101.455 69.8368 101.444 72.1244C101.418 77.5668 105.797 81.9987 111.226 82.0244C116.169 82.0477 120.263 78.4107 120.978 73.6513C129.387 72.3222 135.842 65.0492 135.883 56.2364L135.879 56.2411Z" fill="#5968F2"/>
<path d="M175.21 41.0285C167.055 33.1379 154.069 33.3671 146.193 41.5381C138.322 49.7139 138.55 62.7329 146.701 70.6281C149.787 73.6148 153.57 75.4375 157.5 76.1077C157.839 78.5516 158.959 80.9008 160.863 82.7474C165.397 87.1378 172.622 87.008 177.002 82.4628C180.986 78.3236 181.227 71.9588 177.82 67.5408C183.461 59.4014 182.546 48.1324 175.206 41.0285L175.21 41.0285Z" fill="#5968F2"/>
<path d="M168.275 68.0763C168.289 67.9592 168.309 67.8468 168.319 67.7296C169.352 55.7948 157.012 45.067 140.764 43.7573C124.689 42.467 110.817 50.8816 109.518 62.6136C107.584 65.2296 106.381 68.3975 106.225 71.847L106.183 72.7515C105.75 82.2094 113.283 90.2048 123.007 90.6165L150.81 91.7841C160.534 92.1911 168.771 84.8562 169.208 75.3983L169.25 74.4938C169.354 72.2442 169 70.0767 168.28 68.0716L168.275 68.0763Z" fill="#5968F2"/>
<path d="M124.619 47.3573C117.147 50.4065 111.925 56.0868 111.308 62.8858C110.451 64.0912 109.762 65.4193 109.274 66.8421C108.786 68.2648 108.488 69.8245 108.448 71.4228L108.425 72.2524" stroke="#3953EA" stroke-width="0.6" stroke-miterlimit="10"/>
<path d="M129.173 66.2743C129.614 61.8563 126.592 57.9361 122.424 57.5182C118.256 57.1004 114.52 60.3432 114.079 64.7612C113.639 69.1792 116.66 73.0995 120.828 73.5173C124.996 73.9351 128.732 70.6923 129.173 66.2743Z" fill="white"/>
<path d="M145.298 66.5956C145.738 62.1776 142.717 58.2574 138.549 57.8395C134.381 57.4217 130.645 60.6645 130.204 65.0825C129.763 69.5005 132.785 73.4208 136.953 73.8386C141.121 74.2564 144.857 71.0136 145.298 66.5956Z" fill="white"/>
<path d="M123.145 64.3663C122.327 64.2827 121.736 63.5159 121.82 62.649C121.854 62.3023 121.996 61.9982 122.198 61.7554C121.621 61.3074 120.93 61.0088 120.159 60.9348C117.878 60.7084 115.835 62.4801 115.595 64.8978C115.354 67.3156 117.009 69.461 119.285 69.6874C121.566 69.9138 123.608 68.1422 123.849 65.7244C123.898 65.2277 123.863 64.7447 123.762 64.2849C123.565 64.3542 123.355 64.3907 123.135 64.3663L123.145 64.3663Z" fill="#3953EA"/>
<path d="M138.856 64.6798C138.038 64.5962 137.447 63.8293 137.531 62.9625C137.565 62.6158 137.707 62.3117 137.909 62.0689C137.332 61.6208 136.641 61.3222 135.87 61.2483C133.589 61.0218 131.546 62.7935 131.306 65.2113C131.065 67.629 132.72 69.7745 134.996 70.0009C137.277 70.2273 139.319 68.4556 139.56 66.0379C139.609 65.5412 139.574 65.0582 139.473 64.5983C139.276 64.6677 139.066 64.7042 138.846 64.6797L138.856 64.6798Z" fill="#3953EA"/>
<path d="M145.144 88.5322C145.144 88.5322 148.791 99.397 139.703 102.968C133.57 105.377 122.94 103.723 120.084 102.51C115.581 100.599 113.349 97.9729 113.349 97.9729C113.349 97.9729 108.552 98.7284 106.161 95.1122C104.94 93.2641 106.145 90.5603 106.961 89.1344C107.296 88.5453 107.364 87.8753 107.367 87.1956C107.37 86.6002 107.664 85.8094 108.429 85.1427C109.42 84.2801 111.068 84.9348 112.115 86.0133C112.948 86.8657 114.011 87.4708 115.145 87.8699C119.375 89.3572 123.809 90.0626 130.849 89.4959" fill="#5968F2"/>
<path d="M163.324 56.0234C163.324 56.0234 163.75 56.9114 163.777 58.1445" stroke="#3953EA" stroke-width="0.6" stroke-miterlimit="10"/>
<path d="M107.595 70.7884C107.595 70.7884 107.394 71.7578 107.664 72.9545" stroke="#3953EA" stroke-width="0.6" stroke-miterlimit="10"/>
<path d="M162.855 57.3952C162.855 57.3952 162.323 54.1253 159.137 52.4414" stroke="#3953EA" stroke-width="0.6" stroke-miterlimit="10"/>
<path d="M146.031 105.356C152.79 105.95 157.378 101.941 159.468 99.8504C162.767 96.5518 163.816 93.2331 163.816 93.2331C163.816 93.2331 167.397 92.4391 169.99 88.8324C171.148 87.2206 172.647 83.815 170.008 81.168C169.538 80.697 167.692 79.3522 165.658 80.3927C165.475 80.4856 165.256 80.4048 165.163 80.2169C164.899 79.6906 164.434 79.1118 163.673 78.8504C162.488 78.4416 161.281 79.4531 160.732 80.8522C160.296 81.9658 159.572 82.8953 158.713 83.6412C155.51 86.4294 151.312 89.2925 144.917 90.8795" fill="url(#paint2_linear_941_5201)"/>
<path d="M123.471 91.3049C123.471 91.3049 114.222 91.3736 111.043 85.1426" stroke="#3953EA" stroke-width="0.6" stroke-miterlimit="10"/>
<path d="M146.308 92.5646C151.144 91.2656 155.195 87.933 158.48 84.5311C159.274 83.7099 160.129 81.895 160.56 80.7814C161.104 79.3776 162.321 78.2068 163.492 78.7655C164.397 79.1963 164.936 79.9021 165.148 80.4984C165.148 80.4984 168.365 78.6385 170.361 81.6716C171.355 83.1764 171.526 84.4804 171.348 85.6093" stroke="#3953EA" stroke-width="0.6" stroke-miterlimit="10"/>
<path d="M135.629 76.4121C133.581 78.3713 128.838 81.6537 122.422 79.8748C115.585 77.9767 113.66 72.7736 113.085 70.8114C112.942 70.3279 113.085 69.7801 113.442 69.4255L114.607 68.2778C115.034 67.8533 115.675 67.8985 116.009 68.3829C117.012 69.8409 119.283 72.1674 122.209 72.4062C124.224 72.5751 126.705 71.9118 127.209 71.2814" fill="url(#paint3_linear_941_5201)"/>
<path d="M135.629 76.4121C133.581 78.3713 128.838 81.6537 122.422 79.8748C115.585 77.9767 113.66 72.7736 113.085 70.8114C112.942 70.3279 113.085 69.7801 113.442 69.4255L114.607 68.2778C115.034 67.8533 115.675 67.8985 116.009 68.3829C117.012 69.8409 119.283 72.1674 122.209 72.4062C124.224 72.5751 126.705 71.9118 127.209 71.2814" stroke="#3953EA" stroke-width="0.6" stroke-miterlimit="10"/>
<path d="M122.203 73.7417L121.671 75.4831" stroke="#3953EA" stroke-width="0.6" stroke-miterlimit="10"/>
<path d="M123.23 73.916L123.353 75.7308" stroke="#3953EA" stroke-width="0.6" stroke-miterlimit="10"/>
<path d="M110.633 33.1973C110.653 33.1799 110.672 33.1608 110.692 33.1435C113.697 30.3528 112.02 25.14 108.185 24.1099C106.545 23.6691 104.887 24.0203 103.598 24.9221C102.872 23.5292 101.563 22.4522 99.9037 22.0844C97.1017 21.4672 94.2413 23.1587 93.4223 25.927C92.7592 28.167 93.9581 30.031 94.9831 31.9413C96.0081 33.8517 96.9357 35.5795 97.9121 37.3986C98.4953 38.4838 99.0782 39.5704 99.6615 40.6555C99.6465 40.6265 104.786 37.1109 105.357 36.7429C107.135 35.5943 109.06 34.6386 110.633 33.1988L110.633 33.1973Z" fill="#FFD8CC"/>
<path d="M110.596 33.3713C111.247 32.6896 111.733 31.8326 111.973 30.8505C112.701 27.8743 110.892 24.8742 107.933 24.1505C106.332 23.7587 104.724 24.1144 103.468 24.994C102.759 23.6339 101.497 22.5763 99.8958 22.1846C96.9369 21.4609 93.9473 23.2873 93.2194 26.2635C92.992 27.1932 93.0115 28.1262 93.237 28.9905C93.2494 29.0364 93.2607 29.0804 93.2747 29.1267" stroke="#FF9270" stroke-miterlimit="10"/>
<path d="M110.093 33.8833L100.061 40.4275" stroke="#FF9270" stroke-miterlimit="10"/>
<path d="M93.396 29.7998L99.2749 40.2356" stroke="#FF9270" stroke-miterlimit="10"/>
<path d="M87.6831 17.4601C87.6858 17.4416 87.6871 17.4226 87.6898 17.4041C88.0126 14.5258 84.7133 12.5075 82.1855 13.7231C81.1044 14.2427 80.3783 15.1949 80.104 16.2714C79.0737 15.8601 77.8765 15.8867 76.8187 16.4544C75.0343 17.415 74.2823 19.6384 75.1193 21.4978C75.7964 23.0025 77.2971 23.4481 78.726 23.9985C80.1549 24.5489 81.4477 25.0465 82.8085 25.5706C83.6207 25.8828 84.4334 26.1959 85.2456 26.5081C85.2242 26.4995 86.3559 22.2494 86.4921 21.7892C86.9147 20.3551 87.5048 18.9567 87.6836 17.4611L87.6831 17.4601Z" fill="#FFF5F2"/>
<path d="M87.7429 17.5717C87.7774 16.9068 87.6425 16.2243 87.3186 15.5878C86.337 13.6591 83.9863 12.8865 82.0687 13.8623C81.0309 14.3905 80.3341 15.3217 80.0668 16.3713C79.0609 15.9696 77.898 15.9849 76.8601 16.5131C74.9426 17.489 74.1836 19.8442 75.1652 21.7729C75.4718 22.3754 75.9121 22.8659 76.4311 23.2247C76.4589 23.2436 76.4852 23.2619 76.514 23.2803" stroke="#FFD8CC" stroke-miterlimit="10"/>
<path d="M87.7098 18.0764L85.3542 26.2021" stroke="#FFD8CC" stroke-miterlimit="10"/>
<path d="M76.8892 23.584L84.8447 26.4621" stroke="#FFD8CC" stroke-miterlimit="10"/>
</g>
<defs>
<linearGradient id="paint0_linear_941_5201" x1="61.6148" y1="100.647" x2="25.0622" y2="87.8407" gradientUnits="userSpaceOnUse">
<stop offset="0.41" stop-color="#5968F2"/>
<stop offset="1" stop-color="#3953EA"/>
</linearGradient>
<linearGradient id="paint1_linear_941_5201" x1="65.6924" y1="65.1329" x2="80.2566" y2="71.5728" gradientUnits="userSpaceOnUse">
<stop offset="0.51" stop-color="#5968F2"/>
<stop offset="0.93" stop-color="#3953EA"/>
</linearGradient>
<linearGradient id="paint2_linear_941_5201" x1="144.099" y1="100.838" x2="176.405" y2="79.4739" gradientUnits="userSpaceOnUse">
<stop offset="0.41" stop-color="#5968F2"/>
<stop offset="1" stop-color="#3953EA"/>
</linearGradient>
<linearGradient id="paint3_linear_941_5201" x1="131.453" y1="67.4034" x2="118.908" y2="77.2127" gradientUnits="userSpaceOnUse">
<stop offset="0.51" stop-color="#5968F2"/>
<stop offset="0.93" stop-color="#3953EA"/>
</linearGradient>
</defs>
</svg>
