<svg width="35" height="35" viewBox="0 0 35 35" fill="none" xmlns="http://www.w3.org/2000/svg">
<circle cx="17.5" cy="17.5" r="17.5" fill="#F8F9FF"/>
<ellipse cx="17.4118" cy="22.8237" rx="7.41177" ry="3.17647" fill="#B0BDFF"/>
<path d="M22.4737 12.5215C22.264 10.2281 20.4124 8.31768 18.1153 8.03917C17.9013 8.01306 17.6873 8 17.4821 8C17.2768 8 17.0629 8.01306 16.8489 8.03917C14.5518 8.31768 12.7001 10.2281 12.4905 12.5215C12.4337 13.1873 12.4993 13.827 12.6739 14.4145C12.7875 14.8018 12.9753 15.163 13.1849 15.5068L13.4644 15.9725L16.1196 20.3591L16.3392 20.7231C16.8573 21.582 18.1068 21.582 18.625 20.7231L18.8446 20.3591L21.4998 15.9725L21.7837 15.5068C21.9933 15.163 22.1767 14.8018 22.2946 14.4189C22.4693 13.827 22.5348 13.1873 22.4737 12.5215Z" fill="#DDE2FC"/>
<path d="M20.0796 13.115C20.1448 11.6852 19.0344 10.4734 17.5995 10.4085C16.1646 10.3436 14.9486 11.4501 14.8835 12.8799C14.8183 14.3097 15.9287 15.5215 17.3636 15.5864C18.7984 15.6513 20.0144 14.5449 20.0796 13.115Z" fill="#B0BDFF"/>
</svg>
