<svg width="35" height="35" viewBox="0 0 35 35" fill="none" xmlns="http://www.w3.org/2000/svg">
<circle cx="17.5" cy="17.5" r="17.5" fill="#F4F4F4"/>
<rect x="7.57422" y="9.45026" width="19.8516" height="18.0491" rx="3" fill="#D0D0D0"/>
<path d="M7.57422 12.4503C7.57422 10.7934 8.91736 9.45026 10.5742 9.45026H24.4258C26.0827 9.45026 27.4258 10.7934 27.4258 12.4503V14.3638H7.57422V12.4503Z" fill="#E2E2E2"/>
<path d="M12.7508 8.67283C12.7508 8.02509 12.1754 7.5 11.4655 7.5C10.7557 7.5 10.1802 8.02509 10.1802 8.67283V10.2273C10.1802 10.8751 10.7557 11.4002 11.4655 11.4002C12.1754 11.4002 12.7508 10.8751 12.7508 10.2273V8.67283Z" fill="#D0D0D0"/>
<path d="M18.7858 8.67283C18.7858 8.02509 18.2104 7.5 17.5005 7.5C16.7907 7.5 16.2152 8.02509 16.2152 8.67283V10.2273C16.2152 10.8751 16.7907 11.4002 17.5005 11.4002C18.2104 11.4002 18.7858 10.8751 18.7858 10.2273V8.67283Z" fill="#D0D0D0"/>
<path d="M24.8806 8.67283C24.8806 8.02509 24.3052 7.5 23.5953 7.5C22.8854 7.5 22.31 8.02509 22.31 8.67283V10.2273C22.31 10.8751 22.8854 11.4002 23.5953 11.4002C24.3052 11.4002 24.8806 10.8751 24.8806 10.2273V8.67283Z" fill="#D0D0D0"/>
</svg>
