<svg width="35" height="35" viewBox="0 0 35 35" fill="none" xmlns="http://www.w3.org/2000/svg">
<circle cx="17.5" cy="17.5" r="17.5" fill="#F4F4F4"/>
<path d="M23.0083 8H10.9917C8.78713 8 7 9.77672 7 11.9684V18.9028C7 21.0945 8.78713 22.8712 10.9917 22.8712H23.0083C25.2129 22.8712 27 21.0945 27 18.9028V11.9684C27 9.77672 25.2129 8 23.0083 8Z" fill="#E2E2E2"/>
<path d="M20.4583 25.4146C21.8712 25.4146 23.0166 24.2759 23.0166 22.8712C23.0166 21.4665 21.8712 20.3278 20.4583 20.3278C19.0454 20.3278 17.9 21.4665 17.9 22.8712C17.9 24.2759 19.0454 25.4146 20.4583 25.4146Z" fill="#E2E2E2"/>
<path d="M17.1166 28C17.8069 28 18.3666 27.4436 18.3666 26.7573C18.3666 26.071 17.8069 25.5146 17.1166 25.5146C16.4262 25.5146 15.8666 26.071 15.8666 26.7573C15.8666 27.4436 16.4262 28 17.1166 28Z" fill="#E2E2E2"/>
<path d="M13.075 14.5119C13.6871 14.5119 14.1833 14.0185 14.1833 13.41C14.1833 12.8014 13.6871 12.3081 13.075 12.3081H11.6C10.9878 12.3081 10.4916 12.8014 10.4916 13.41C10.4916 14.0185 10.9878 14.5119 11.6 14.5119H13.075Z" fill="#D0D0D0"/>
<path d="M22.4 14.5119C23.0121 14.5119 23.5083 14.0185 23.5083 13.41C23.5083 12.8014 23.0121 12.3081 22.4 12.3081H16.35C15.7379 12.3081 15.2416 12.8014 15.2416 13.41C15.2416 14.0185 15.7379 14.5119 16.35 14.5119H22.4Z" fill="#D0D0D0"/>
<path d="M20.925 16.3511C20.3129 16.3511 19.8167 16.8444 19.8167 17.453C19.8167 18.0615 20.3129 18.5549 20.925 18.5549H22.4C23.0121 18.5549 23.5083 18.0615 23.5083 17.453C23.5083 16.8444 23.0121 16.3511 22.4 16.3511H20.925Z" fill="#D0D0D0"/>
<path d="M11.5917 16.3511C10.9796 16.3511 10.4833 16.8444 10.4833 17.453C10.4833 18.0615 10.9796 18.5549 11.5917 18.5549H17.6417C18.2538 18.5549 18.75 18.0615 18.75 17.453C18.75 16.8444 18.2538 16.3511 17.6417 16.3511H11.5917Z" fill="#D0D0D0"/>
</svg>
