<svg width="35" height="35" viewBox="0 0 35 35" fill="none" xmlns="http://www.w3.org/2000/svg">
<circle cx="17.5" cy="17.5" r="17.5" fill="#F4F4F4"/>
<path d="M12.915 25.6687C12.1591 26.1649 11.1852 25.4829 11.393 24.6029L12.3838 20.4065C12.5462 19.7186 13.3516 19.4117 13.9306 19.8171L16.5443 21.6472C17.1233 22.0526 17.1104 22.9144 16.5195 23.3023L12.915 25.6687Z" fill="#E2E2E2"/>
<path d="M11.5389 26.4899C11.3169 26.6215 11.0434 26.43 11.0911 26.1764L11.4569 24.2321L13.2408 25.4812L11.5389 26.4899Z" fill="#D0D0D0"/>
<path d="M19.7805 8.76953C20.4141 7.86472 21.6612 7.64482 22.566 8.27838L24.4321 9.58504C25.3369 10.2186 25.5568 11.4657 24.9232 12.3705L17.8174 22.5187C17.5006 22.9711 16.8771 23.0811 16.4247 22.7643L12.9202 20.3105C12.4678 19.9937 12.3579 19.3701 12.6747 18.9177L19.7805 8.76953Z" fill="#D0D0D0"/>
<path d="M20.4665 7.79083C21.1 6.88602 22.3471 6.66612 23.252 7.29968L25.1181 8.60634C26.0229 9.2399 26.2428 10.487 25.6092 11.3918L25.1862 11.9959L20.0435 8.39495L20.4665 7.79083Z" fill="#E2E2E2"/>
</svg>
